if (_typeface_js && _typeface_js.loadFace) _typeface_js.loadFace({"glyphs":{"\u0000":{"x_min":0,"x_max":0,"ha":311},"ﾉ":{"x_min":53,"x_max":632.171875,"ha":694,"o":"m 494 1104 b 53 12 418 626 262 238 b 155 -68 86 -8 129 -43 b 597 1045 365 187 511 573 b 632 1067 614 1047 628 1055 l 494 1104 "},"～":{"x_min":56,"x_max":1333.78125,"ha":1389,"o":"m 1211 644 b 967 468 1156 539 1068 468 b 744 576 868 468 812 508 b 424 726 647 675 553 726 b 56 477 276 726 146 642 l 178 411 b 422 587 233 516 321 587 b 644 479 521 587 576 547 b 965 329 742 380 836 329 b 1333 578 1112 329 1243 413 l 1211 644 "},"｢":{"x_min":184.71875,"x_max":650,"ha":694,"o":"m 280 208 l 280 1081 l 650 1081 l 650 1177 l 184 1177 l 184 208 l 280 208 "},"｡":{"x_min":44.4375,"x_max":433.328125,"ha":694,"o":"m 238 266 b 44 72 131 266 44 179 b 238 -122 44 -34 131 -122 b 433 72 345 -122 433 -34 b 238 266 433 176 348 266 m 238 -65 b 101 72 162 -65 101 -4 b 238 208 101 147 162 208 b 375 72 313 208 375 147 b 238 -65 375 -1 316 -65 "},"Ｍ":{"x_min":193.0625,"x_max":1195.828125,"ha":1389,"o":"m 1043 -8 l 1195 -8 l 1129 1070 l 948 1070 l 795 583 b 697 240 755 447 729 358 l 693 240 b 597 583 663 355 636 450 l 450 1070 l 266 1070 l 193 -8 l 338 -8 l 361 429 b 379 836 370 573 375 708 l 383 836 b 481 470 412 713 441 606 l 623 1 l 745 1 l 898 484 b 1004 836 940 612 970 716 l 1008 836 b 1022 438 1006 713 1013 575 l 1043 -8 "},"е":{"x_min":331.4375,"x_max":1059.21875,"ha":1389,"o":"m 988 145 b 756 105 930 123 864 105 b 487 340 610 105 489 187 l 1053 340 b 1059 412 1056 356 1059 381 b 720 783 1059 568 985 783 b 331 366 480 783 331 597 b 735 -16 331 137 485 -16 b 1014 34 868 -16 960 11 l 988 145 m 487 454 b 709 670 499 543 560 670 b 907 454 881 670 909 519 l 487 454 "},"０":{"x_min":301.390625,"x_max":1087.5,"ha":1389,"o":"m 694 -19 b 1087 530 950 -19 1087 194 b 695 1066 1087 865 948 1066 b 301 527 458 1066 301 859 b 694 -19 301 200 433 -19 m 694 111 b 476 526 561 111 476 256 b 694 936 476 779 559 936 b 912 526 840 936 912 777 b 694 111 912 272 837 111 "},"\u0007":{"x_min":0,"x_max":0,"ha":311},"e":{"x_min":54.4375,"x_max":687.359375,"ha":754,"o":"m 623 144 b 434 108 574 123 517 108 b 206 345 315 108 210 173 l 683 345 b 687 413 686 365 687 387 b 392 781 687 602 602 781 b 54 372 179 781 54 600 b 411 -15 54 138 185 -15 b 649 30 513 -15 596 5 l 623 144 m 208 461 b 381 666 216 550 265 666 b 537 461 502 666 539 552 l 208 461 "},"ﾐ":{"x_min":88,"x_max":580,"ha":694,"o":"m 160 975 b 534 812 274 943 439 876 l 571 937 b 192 1092 474 998 313 1060 l 160 975 m 139 562 b 488 419 252 532 402 471 l 517 542 b 165 674 441 587 277 649 l 139 562 m 88 157 b 541 -62 236 106 431 15 l 580 68 b 114 268 482 129 293 211 l 88 157 "},"ﾍ":{"x_min":17.890625,"x_max":679,"ha":694,"o":"m 77 327 b 98 374 91 337 98 356 l 229 690 b 290 801 262 772 274 801 b 348 687 309 801 327 744 b 616 47 406 523 541 190 l 679 197 b 399 844 601 348 474 640 b 292 960 370 919 338 960 b 187 844 256 960 224 930 b 17 477 142 744 59 559 l 77 327 "},"Ｎ":{"x_min":295.828125,"x_max":1093.0625,"ha":1389,"o":"m 444 -6 l 444 409 b 436 858 444 590 443 729 l 440 859 b 626 505 495 747 559 620 l 930 -6 l 1093 -6 l 1093 1072 l 944 1072 l 944 665 b 958 219 944 494 947 355 l 954 218 b 776 558 901 325 844 438 l 469 1072 l 295 1072 l 295 -6 l 444 -6 "},"^":{"x_min":87,"x_max":834.25,"ha":940,"o":"m 514 1025 l 406 1025 l 87 293 l 208 293 l 457 891 l 461 891 l 711 293 l 834 293 l 514 1025 "},"к":{"x_min":362.5,"x_max":1080.5625,"ha":1389,"o":"m 518 -6 l 518 330 b 813 163 600 330 729 330 b 911 -6 845 97 881 27 l 1080 -6 b 975 194 1040 51 1000 143 b 697 423 912 323 831 406 l 1073 773 l 873 773 l 554 440 l 518 440 l 518 773 l 362 773 l 362 -6 l 518 -6 "},"\u000e":{"x_min":0,"x_max":0,"ha":311},"ﾗ":{"x_min":93.03125,"x_max":628,"ha":694,"o":"m 147 954 l 558 954 l 558 1076 l 147 1076 l 147 954 m 93 590 l 493 590 b 143 27 458 323 349 122 b 215 -73 163 5 201 -44 b 611 648 461 47 564 288 b 628 666 616 651 625 659 l 551 723 l 539 711 l 93 711 l 93 590 "},"ﾎ":{"x_min":37.5,"x_max":659.71875,"ha":694,"o":"m 293 847 l 84 847 l 84 719 l 293 719 l 293 87 b 276 54 293 63 288 54 l 240 54 b 181 55 222 54 201 54 b 209 -65 194 15 206 -33 b 394 86 365 -65 394 -38 l 394 719 l 609 719 l 609 847 l 394 847 l 394 1081 b 418 1108 408 1084 418 1093 l 293 1116 l 293 847 m 659 216 b 526 569 633 311 575 468 l 448 512 b 576 123 493 408 552 229 l 659 216 m 108 122 b 231 513 165 218 205 358 l 151 563 b 37 222 127 425 88 301 l 108 122 "},"･":{"x_min":222.21875,"x_max":470.828125,"ha":694,"o":"m 347 652 b 222 527 277 652 222 597 b 347 402 222 458 277 402 b 470 527 415 402 470 458 b 347 652 470 594 418 652 "},"ﾜ":{"x_min":92.765625,"x_max":630.265625,"ha":694,"o":"m 92 511 l 194 511 l 194 872 l 505 872 b 153 37 489 425 371 193 b 239 -63 183 12 219 -31 b 612 936 502 136 592 398 b 630 958 617 940 627 948 l 552 1009 l 538 997 l 92 997 l 92 511 "},"ﾆ":{"x_min":65.28125,"x_max":629.171875,"ha":694,"o":"m 119 813 l 570 813 l 570 944 l 119 944 l 119 813 m 65 51 l 629 51 l 629 181 l 65 181 l 65 51 "},"ｱ":{"x_min":63.890625,"x_max":647.21875,"ha":694,"o":"m 552 1052 l 76 1052 l 76 925 l 519 925 b 420 597 506 815 461 681 b 504 527 445 581 483 551 b 633 988 566 656 611 844 b 647 1006 640 993 644 998 l 568 1062 l 552 1052 m 262 756 b 63 20 254 455 206 155 b 148 -77 88 0 133 -52 b 363 712 312 104 348 416 b 390 740 380 715 387 725 l 262 756 "},"＠":{"x_min":176.390625,"x_max":1218.0625,"ha":1389,"o":"m 916 112 b 677 58 852 77 766 58 b 270 486 443 58 270 220 b 741 1006 270 794 479 1006 b 1127 618 990 1006 1127 843 b 956 329 1127 433 1030 327 b 898 404 918 330 898 351 b 908 484 898 425 901 451 l 963 787 b 790 822 922 808 856 822 b 418 450 569 822 418 645 b 588 250 418 323 494 250 b 806 383 680 250 752 293 l 811 383 b 933 250 811 288 863 250 b 1218 626 1087 250 1218 390 b 756 1081 1218 888 1031 1081 b 176 476 412 1081 176 809 b 658 -18 176 170 400 -18 b 940 43 763 -18 851 -1 l 916 112 m 809 547 b 631 343 790 438 715 343 b 534 459 566 343 534 391 b 769 731 534 604 638 731 b 841 720 802 731 825 726 l 809 547 "},"-":{"x_min":46.28125,"x_max":420.578125,"ha":476,"o":"m 46 363 l 420 363 l 420 479 l 46 479 l 46 363 "},"Q":{"x_min":53.078125,"x_max":948.703125,"ha":1010,"o":"m 679 44 b 936 543 830 104 936 275 b 503 1079 936 851 775 1079 b 53 523 234 1079 53 859 b 473 -15 53 175 245 -6 b 533 -31 492 -15 513 -22 b 901 -159 645 -76 771 -122 l 948 -30 b 679 38 868 -12 769 11 l 679 44 m 498 947 b 770 536 683 947 770 741 b 494 116 770 308 675 116 b 219 527 318 116 219 311 b 498 947 219 737 306 947 "},"Ш":{"x_min":122.21875,"x_max":1238.890625,"ha":1389,"o":"m 1238 0 l 1238 1065 l 1084 1065 l 1084 133 l 758 133 l 758 1065 l 604 1065 l 604 133 l 277 133 l 277 1065 l 122 1065 l 122 0 l 1238 0 "},"M":{"x_min":81.671875,"x_max":1105.21875,"ha":1210,"o":"m 1042 1063 l 845 1063 l 694 597 b 594 230 653 465 620 344 l 590 230 b 495 595 564 347 533 465 l 348 1063 l 152 1063 l 81 0 l 228 0 l 251 438 b 270 887 259 587 268 755 l 274 887 b 379 481 300 759 337 620 l 522 9 l 641 9 l 796 491 b 911 887 839 626 880 762 l 916 887 b 929 447 914 755 922 591 l 952 0 l 1105 0 l 1042 1063 "},"ｔ":{"x_min":436.109375,"x_max":951.390625,"ha":1389,"o":"m 563 913 l 563 766 l 436 766 l 436 645 l 563 645 l 563 256 b 627 45 563 161 581 93 b 795 -16 665 6 723 -16 b 943 5 859 -16 911 -6 l 937 129 b 843 116 912 120 886 116 b 726 279 754 116 726 183 l 726 645 l 951 645 l 951 766 l 726 766 l 726 955 l 563 913 "},"ｌ":{"x_min":612.5,"x_max":775,"ha":1389,"o":"m 612 -6 l 775 -6 l 775 1125 l 612 1125 l 612 -6 "},"ｩ":{"x_min":118.90625,"x_max":578.640625,"ha":694,"o":"m 292 697 l 118 697 l 118 331 l 205 331 l 205 591 l 477 591 b 186 -33 461 306 377 76 b 256 -120 213 -59 242 -97 b 568 665 466 11 549 252 b 578 686 571 669 578 677 l 520 702 l 506 697 l 388 697 l 388 873 b 418 902 405 876 416 888 l 292 909 l 292 697 "},"ﾟ":{"x_min":41.671875,"x_max":281.9375,"ha":694,"o":"m 281 1038 b 162 1183 281 1118 229 1183 b 41 1038 95 1183 41 1118 b 162 893 41 958 95 893 b 281 1038 227 893 281 955 m 81 1038 b 162 1141 81 1094 115 1141 b 241 1038 208 1141 241 1094 b 162 936 241 981 208 936 b 81 1038 118 936 81 979 "},"{":{"x_min":42.1875,"x_max":394.71875,"ha":446,"o":"m 394 -77 b 259 50 337 -77 259 -77 b 270 165 259 68 265 116 b 280 279 274 213 280 262 b 166 452 280 384 236 434 l 166 455 b 280 627 236 475 280 523 b 270 748 280 661 273 723 b 259 856 265 784 259 820 b 394 983 259 983 337 983 l 394 1081 b 138 872 314 1081 138 1081 b 151 740 138 851 144 795 b 161 611 156 684 161 630 b 43 498 161 558 145 500 l 42 408 b 161 295 145 406 161 343 b 151 165 161 276 156 220 b 138 38 144 111 138 56 b 394 -176 138 -176 300 -176 l 394 -77 "},"ｶ":{"x_min":57.171875,"x_max":629.390625,"ha":694,"o":"m 561 815 l 380 815 b 396 1083 387 904 393 997 b 426 1109 414 1086 425 1095 l 289 1119 b 279 815 287 1018 286 915 l 94 815 l 94 688 l 269 688 b 57 41 247 452 183 204 b 143 -58 87 16 126 -33 b 368 688 276 140 339 406 l 526 688 b 486 152 516 359 501 216 b 439 69 471 91 457 69 b 319 91 419 69 366 76 b 323 11 321 69 323 38 b 322 -22 323 0 323 -12 b 465 -45 379 -37 426 -45 b 566 58 508 -45 543 -18 b 625 781 596 156 615 356 b 629 802 628 787 629 797 l 579 818 l 561 815 "},"Ｙ":{"x_min":208.328125,"x_max":1191.671875,"ha":1389,"o":"m 770 -6 l 770 444 l 1191 1072 l 1000 1072 l 815 755 b 698 551 768 676 733 613 l 695 551 b 581 758 659 619 627 673 l 401 1072 l 208 1072 l 606 443 l 606 -6 l 770 -6 "},"＊":{"x_min":265,"x_max":1123,"ha":1389,"o":"m 664 594 l 660 591 l 344 832 l 265 695 l 631 541 l 631 536 l 265 382 l 344 245 l 660 486 l 664 483 l 614 89 l 773 89 l 723 483 l 727 486 l 1043 245 l 1123 382 l 756 536 l 756 541 l 1123 695 l 1043 832 l 727 591 l 723 594 l 773 989 l 614 989 l 664 594 "},"#":{"x_min":49.96875,"x_max":699.03125,"ha":765,"o":"m 273 312 l 418 312 l 379 0 l 481 0 l 519 312 l 662 312 l 662 411 l 535 411 l 564 643 l 699 643 l 699 743 l 577 743 l 617 1045 l 516 1045 l 477 743 l 330 743 l 369 1045 l 269 1045 l 229 743 l 88 743 l 88 643 l 215 643 l 187 411 l 49 411 l 49 311 l 171 311 l 131 0 l 233 0 l 273 312 m 316 643 l 462 643 l 433 411 l 288 411 l 316 643 "},"ｦ":{"x_min":81,"x_max":617,"ha":694,"o":"m 93 913 l 493 913 b 465 661 489 823 478 729 l 81 661 l 81 538 l 439 537 b 112 30 392 327 287 151 b 194 -72 140 2 175 -40 b 604 976 476 138 573 455 b 617 997 608 981 614 990 l 539 1050 l 525 1036 l 93 1036 l 93 913 "},"\u0018":{"x_min":0,"x_max":0,"ha":311},"Ｔ":{"x_min":236.109375,"x_max":1152.78125,"ha":1389,"o":"m 612 -6 l 775 -6 l 775 926 l 1152 926 l 1152 1065 l 236 1065 l 236 926 l 612 926 l 612 -6 "},")":{"x_min":36.75,"x_max":344.359375,"ha":447,"o":"m 36 1093 b 215 452 137 941 215 736 b 36 -188 215 169 136 -38 l 155 -188 b 344 452 246 -59 343 143 b 155 1093 344 763 246 968 l 36 1093 "},"Ｄ":{"x_min":277.78125,"x_max":1152.78125,"ha":1389,"o":"m 277 4 b 529 -8 344 -4 427 -8 b 995 138 741 -8 895 43 b 1152 556 1097 236 1152 380 b 1001 944 1152 730 1098 856 b 573 1073 908 1030 773 1073 b 277 1051 462 1073 359 1065 l 277 4 m 438 933 b 586 947 472 941 520 947 b 981 552 852 947 981 798 b 565 120 981 276 837 120 b 438 127 516 120 469 122 l 438 933 "},"э":{"x_min":360.0625,"x_max":1029.5,"ha":1389,"o":"m 360 31 b 590 -16 419 2 501 -16 b 1029 381 861 -16 1029 150 b 618 783 1029 602 890 783 b 371 727 530 783 436 761 l 401 623 b 594 663 443 641 507 663 b 868 441 771 663 855 562 l 462 441 l 462 336 l 867 336 b 582 105 854 201 742 105 b 386 141 493 105 429 127 l 360 31 "},"\u001c":{"x_min":0,"x_max":0,"ha":311},"ш":{"x_min":181.9375,"x_max":1206.953125,"ha":1389,"o":"m 1206 0 l 1206 773 l 1051 773 l 1051 123 l 772 123 l 772 773 l 616 773 l 616 123 l 337 123 l 337 773 l 181 773 l 181 0 l 1206 0 "},"Я":{"x_min":251.390625,"x_max":1080.5625,"ha":1389,"o":"m 533 497 b 356 306 437 473 381 397 b 251 -6 318 162 281 43 l 425 -6 b 509 255 445 22 466 90 b 738 448 544 393 601 440 l 919 448 l 919 -6 l 1080 -6 l 1080 1051 b 750 1073 993 1063 868 1073 b 388 979 577 1073 470 1045 b 298 773 334 934 298 863 b 533 502 298 629 394 529 l 533 497 m 725 570 b 461 758 555 570 461 647 b 738 950 461 887 562 950 b 919 937 831 950 886 944 l 919 570 l 725 570 "},"Ｓ":{"x_min":283.34375,"x_max":1106.96875,"ha":1389,"o":"m 283 77 b 648 -16 363 25 497 -16 b 1106 298 986 -16 1106 136 b 751 616 1106 462 1012 552 b 470 798 544 666 470 704 b 727 947 470 872 550 947 b 1005 883 855 947 952 909 l 1051 1012 b 729 1081 980 1050 877 1081 b 306 786 465 1081 306 954 b 655 481 306 608 436 533 b 943 286 877 430 943 377 b 668 119 943 190 854 119 b 326 212 527 119 404 161 l 283 77 "},"a":{"x_min":49.171875,"x_max":637.171875,"ha":739,"o":"m 626 470 b 344 781 626 633 565 781 b 102 718 243 781 155 752 l 134 611 b 317 663 182 643 250 663 b 468 493 468 663 468 550 b 49 208 211 493 49 398 b 269 -15 49 90 129 -15 b 479 88 363 -15 437 29 l 483 88 l 494 0 l 637 0 b 626 181 627 50 626 116 l 626 470 m 472 258 b 315 102 472 169 401 102 b 205 225 257 102 205 140 b 472 384 205 361 348 384 l 472 258 "},"ｺ":{"x_min":93.0625,"x_max":591.671875,"ha":694,"o":"m 108 844 l 481 844 l 481 161 l 93 161 l 93 33 l 481 33 l 481 -26 l 591 -26 l 591 972 l 108 972 l 108 844 "},"=":{"x_min":62.609375,"x_max":860.21875,"ha":940,"o":"m 860 631 l 62 631 l 62 525 l 860 525 l 860 631 m 860 322 l 62 322 l 62 215 l 860 215 l 860 322 "},"д":{"x_min":244.6875,"x_max":1143.296875,"ha":1389,"o":"m 453 565 b 322 115 453 379 403 227 l 244 111 l 251 -234 l 375 -234 l 382 0 l 1007 0 l 1015 -234 l 1136 -234 l 1143 112 l 1053 115 l 1053 766 l 453 766 l 453 565 m 898 647 l 898 118 l 482 118 b 591 536 572 252 591 433 l 591 647 l 898 647 "},"－":{"x_min":194.4375,"x_max":1194.453125,"ha":1389,"o":"m 194 466 l 1194 466 l 1194 581 l 194 581 l 194 466 "},"Z":{"x_min":39.46875,"x_max":751.328125,"ha":811,"o":"m 745 1062 l 83 1062 l 83 927 l 545 927 l 545 922 l 39 91 l 39 0 l 751 0 l 751 136 l 245 136 l 245 141 l 745 963 l 745 1062 "},"）":{"x_min":44.4375,"x_max":412.5,"ha":1389,"o":"m 44 -122 l 150 -122 b 412 527 293 4 412 243 b 150 1177 412 812 293 1051 l 44 1177 l 44 1170 b 319 527 191 1047 319 812 b 44 -115 319 248 195 11 l 44 -122 "},"u":{"x_min":98,"x_max":717.3125,"ha":829,"o":"m 710 765 l 552 765 l 552 291 b 396 118 552 176 468 118 b 255 337 292 118 255 205 l 255 766 l 98 766 l 98 311 b 340 -15 98 66 210 -15 b 566 111 461 -15 534 58 l 570 111 l 578 0 l 717 0 b 710 219 714 61 710 133 l 710 765 "},"k":{"x_min":100.71875,"x_max":725.46875,"ha":728,"o":"m 427 450 l 691 765 l 504 765 l 318 509 b 261 420 299 483 279 450 l 258 420 l 258 1113 l 100 1113 l 100 0 l 258 0 l 258 275 l 319 351 l 534 0 l 725 0 l 427 450 "},"：":{"x_min":581.9375,"x_max":806.953125,"ha":1389,"o":"m 694 975 b 581 862 631 975 581 925 b 694 750 581 800 631 750 b 806 862 756 750 806 800 b 694 975 806 922 759 975 m 694 305 b 581 193 631 305 581 255 b 694 80 581 130 631 80 b 806 193 756 80 806 130 b 694 305 806 252 759 305 "},"З":{"x_min":302.78125,"x_max":1120.828125,"ha":1389,"o":"m 505 493 l 580 493 b 951 300 762 493 951 451 b 641 113 951 193 840 113 b 337 173 531 113 415 141 l 302 48 b 637 -15 395 5 516 -15 b 1120 294 888 -15 1120 79 b 805 561 1120 451 998 541 l 805 563 b 1073 818 969 594 1073 686 b 681 1079 1073 975 931 1079 b 338 1002 543 1079 423 1047 l 376 886 b 655 948 452 918 556 948 b 909 793 806 948 909 893 b 581 612 909 681 768 612 l 505 612 l 505 493 "},"ｷ":{"x_min":68.0625,"x_max":631.9375,"ha":694,"o":"m 272 858 l 68 815 l 80 686 l 280 727 l 295 445 l 72 400 l 79 276 l 302 322 l 326 -80 l 429 -70 l 405 341 l 631 388 l 623 516 l 398 468 l 381 748 l 572 788 l 563 919 l 373 879 l 362 1094 b 387 1122 377 1101 387 1109 l 255 1125 l 272 858 "},"％":{"x_min":109.71875,"x_max":1283.328125,"ha":1389,"o":"m 343 1047 b 109 745 206 1047 109 927 b 334 456 109 569 205 456 b 563 761 462 456 563 558 b 343 1047 563 909 501 1047 m 337 955 b 443 755 412 955 443 880 b 337 548 443 616 406 548 b 229 752 273 548 229 615 b 337 955 229 876 269 955 m 1062 581 b 829 279 926 581 829 461 b 1054 -9 829 102 925 -9 b 1283 295 1181 -9 1283 91 b 1062 581 1283 443 1223 581 m 1058 488 b 1163 287 1131 488 1163 415 b 1056 83 1163 151 1127 83 b 950 280 994 83 950 147 b 1058 488 950 427 995 488 m 431 -15 l 1048 1044 l 951 1044 l 337 -15 l 431 -15 "},"ｎ":{"x_min":334.71875,"x_max":1047.21875,"ha":1389,"o":"m 341 -6 l 504 -6 l 504 455 b 704 650 504 565 598 650 b 884 431 834 650 884 552 l 884 -6 l 1047 -6 l 1047 441 b 759 783 1047 711 876 783 b 493 634 627 783 533 706 l 488 634 l 481 773 l 334 773 b 341 548 338 705 341 626 l 341 -6 "},"＼":{"x_min":44,"x_max":1344.015625,"ha":1389,"o":"m 87 1178 l 44 1134 l 1300 -122 l 1344 -78 l 87 1178 "},"B":{"x_min":108.890625,"x_max":760.859375,"ha":836,"o":"m 552 573 b 724 805 661 615 724 704 b 352 1070 724 912 669 1070 b 108 1048 259 1070 167 1061 l 108 2 b 315 -9 153 -2 223 -9 b 671 90 487 -9 601 22 b 760 304 709 126 760 191 b 552 569 760 452 661 541 l 552 573 m 265 619 l 265 940 b 367 948 284 944 315 948 b 566 788 465 948 566 916 b 362 619 566 690 487 619 l 265 619 m 265 500 l 356 500 b 596 308 477 500 596 448 b 360 113 596 168 487 113 b 265 119 319 113 288 115 l 265 500 "},"В":{"x_min":302.78125,"x_max":1120.828125,"ha":1389,"o":"m 883 569 b 1075 797 1004 605 1075 701 b 626 1073 1075 1068 768 1073 b 302 1048 504 1073 377 1063 l 302 5 b 565 -8 366 -2 461 -8 b 1008 80 754 -8 912 12 b 1120 308 1075 130 1120 205 b 883 563 1120 462 991 541 l 883 569 m 463 613 l 463 941 b 637 952 493 947 541 952 b 912 783 787 952 912 920 b 654 613 912 691 829 613 l 463 613 m 633 494 b 951 308 815 494 951 444 b 625 115 951 148 770 115 b 463 122 556 115 505 115 l 463 494 l 633 494 "},"H":{"x_min":108.890625,"x_max":849.328125,"ha":976,"o":"m 849 1063 l 691 1063 l 691 625 l 266 625 l 266 1063 l 108 1063 l 108 0 l 266 0 l 266 483 l 691 483 l 691 0 l 849 0 l 849 1063 "},"ａ":{"x_min":328.875,"x_max":1024.71875,"ha":1389,"o":"m 1009 440 b 681 783 1009 577 973 783 b 384 708 570 783 460 754 l 420 600 b 655 666 485 643 570 666 b 846 493 810 666 846 576 b 328 204 506 497 328 391 b 585 -16 328 101 408 -16 b 858 102 713 -16 809 40 l 860 102 l 876 -6 l 1024 -6 b 1009 187 1013 43 1009 119 l 1009 440 m 851 259 b 631 100 851 184 756 100 b 487 226 553 100 487 143 b 851 387 487 344 656 390 l 851 259 "},"６":{"x_min":305.546875,"x_max":1086.109375,"ha":1389,"o":"m 488 583 b 927 931 531 825 752 931 b 975 929 945 931 961 930 l 961 1063 b 873 1061 936 1065 904 1063 b 305 433 495 1034 305 759 b 709 -19 305 181 445 -19 b 1086 348 931 -19 1086 143 b 748 691 1086 565 933 691 b 493 583 633 691 547 645 l 488 583 m 906 334 b 706 111 906 201 826 111 b 476 388 561 111 480 226 b 693 565 476 451 559 565 b 906 334 820 565 906 481 "},"U":{"x_min":107.53125,"x_max":841.171875,"ha":967,"o":"m 841 1062 l 683 1062 l 683 419 b 470 116 683 208 601 116 b 265 419 351 116 265 206 l 265 1062 l 107 1062 l 107 429 b 465 -15 107 112 251 -15 b 841 433 687 -15 841 118 l 841 1062 "},"F":{"x_min":108.890625,"x_max":650.609375,"ha":733,"o":"m 266 0 l 266 466 l 623 466 l 623 600 l 266 600 l 266 927 l 650 927 l 650 1062 l 108 1062 l 108 0 l 266 0 "},"ｒ":{"x_min":481.9375,"x_max":976.390625,"ha":1389,"o":"m 488 -6 l 651 -6 l 651 381 b 894 629 651 522 748 629 b 976 622 927 629 951 627 l 976 776 b 916 783 955 781 940 783 b 638 576 793 783 691 713 l 633 576 l 626 773 l 481 773 b 488 511 487 698 488 620 l 488 -6 "},"ｪ":{"x_min":108.328125,"x_max":573.609375,"ha":694,"o":"m 136 655 l 293 655 l 293 55 l 108 55 l 108 -52 l 573 -52 l 573 55 l 387 55 l 387 655 l 540 655 l 540 766 l 136 766 l 136 655 "},"*":{"x_min":44.015625,"x_max":598,"ha":653,"o":"m 321 855 l 318 855 l 226 1078 l 122 1016 l 269 825 l 268 822 l 44 855 l 44 737 l 271 771 l 271 768 l 122 575 l 220 512 l 316 737 l 318 739 l 411 514 l 516 576 l 366 765 l 366 769 l 598 737 l 598 855 l 366 821 l 366 823 l 514 1019 l 412 1079 l 321 855 "},"0":{"x_min":50.359375,"x_max":714.578125,"ha":781,"o":"m 378 -15 b 714 531 589 -15 714 177 b 389 1062 714 848 605 1062 b 50 520 176 1062 50 862 b 378 -15 50 200 164 -15 m 381 113 b 209 526 272 113 209 266 b 383 934 209 787 280 934 b 555 526 503 934 555 775 b 381 113 555 309 514 113 "},"ﾛ":{"x_min":111.109375,"x_max":584.71875,"ha":694,"o":"m 111 -2 l 205 -2 l 205 68 l 487 68 l 487 -1 l 584 -1 l 584 968 l 111 968 l 111 -2 m 205 848 l 487 848 l 487 200 l 205 200 l 205 848 "},"ﾊ":{"x_min":22,"x_max":672,"ha":694,"o":"m 672 122 b 485 981 645 364 560 710 l 413 917 b 569 12 478 654 545 280 l 672 122 m 180 968 b 22 126 152 603 97 326 b 101 7 47 90 90 40 b 260 890 190 230 231 533 b 285 917 274 892 283 904 l 180 968 "},"ｅ":{"x_min":331.0625,"x_max":1058.109375,"ha":1389,"o":"m 1052 340 b 1058 412 1055 356 1058 381 b 719 783 1058 568 984 783 b 331 366 479 783 331 597 b 734 -16 331 137 485 -16 b 1013 34 868 -16 959 11 l 987 147 b 755 105 929 125 863 105 b 488 340 610 105 490 187 l 1052 340 m 488 454 b 708 670 499 543 560 670 b 906 454 879 670 908 519 l 488 454 "},"\u0013":{"x_min":0,"x_max":0,"ha":311},"ﾂ":{"x_min":52.375,"x_max":660.390625,"ha":694,"o":"m 400 658 b 347 1049 393 764 370 933 l 257 1018 b 307 621 279 908 302 739 l 400 658 m 542 1018 b 141 27 492 551 413 243 b 229 -61 167 7 209 -33 b 634 964 509 171 579 507 b 660 985 646 967 659 973 l 542 1018 m 209 614 b 141 992 199 716 170 880 l 52 958 b 114 576 80 846 107 676 l 209 614 "},"｝":{"x_min":44.4375,"x_max":418.0625,"ha":1389,"o":"m 418 572 b 258 755 302 572 258 600 b 265 916 258 780 265 893 b 44 1184 265 1102 181 1177 l 44 1097 b 176 908 127 1090 176 1066 b 169 759 176 884 169 780 b 304 530 169 598 223 544 l 304 525 b 169 295 223 511 169 456 b 176 147 169 272 176 168 b 44 -41 176 -11 127 -34 l 44 -129 b 265 138 181 -122 265 -47 b 258 301 265 165 258 277 b 418 483 258 455 302 483 l 418 572 "},"￢":{"x_min":179.171875,"x_max":1187.5,"ha":1389,"o":"m 179 623 l 1070 623 l 1070 265 l 1187 265 l 1187 738 l 179 738 l 179 623 "},"ｴ":{"x_min":73.609375,"x_max":620.828125,"ha":694,"o":"m 106 834 l 293 834 l 293 133 l 73 133 l 73 8 l 620 8 l 620 133 l 402 133 l 402 834 l 583 834 l 583 963 l 106 963 l 106 834 "},"]":{"x_min":39.46875,"x_max":321.21875,"ha":447,"o":"m 39 983 l 200 983 l 200 -77 l 39 -77 l 39 -176 l 321 -176 l 321 1081 l 39 1081 l 39 983 "},"А":{"x_min":218,"x_max":1171,"ha":1389,"o":"m 998 -6 l 1171 -6 l 790 1072 l 597 1072 l 218 -6 l 384 -6 l 493 319 l 888 319 l 998 -6 m 637 770 b 686 938 655 826 670 879 l 688 938 b 740 770 702 888 722 825 l 857 443 l 522 443 l 637 770 "},"Ы":{"x_min":179.171875,"x_max":1209.71875,"ha":1389,"o":"m 179 4 b 400 -8 223 -1 294 -8 b 943 343 775 -8 943 138 b 477 674 943 568 726 674 b 336 668 431 674 372 672 l 336 1065 l 179 1065 l 179 4 m 1209 0 l 1209 1065 l 1051 1065 l 1051 0 l 1209 0 m 336 544 b 455 551 370 548 413 551 b 777 336 622 551 777 484 b 450 113 777 193 634 113 b 336 120 401 113 370 116 l 336 544 "},"\u0004":{"x_min":0,"x_max":0,"ha":311},"8":{"x_min":53.078125,"x_max":713.21875,"ha":781,"o":"m 240 547 b 53 265 130 494 53 398 b 378 -15 53 118 168 -15 b 713 288 571 -15 713 106 b 521 558 713 416 632 508 l 521 562 b 679 804 632 620 679 715 b 392 1062 679 930 588 1062 b 88 784 220 1062 88 951 b 240 551 88 694 138 605 l 240 547 m 382 98 b 212 284 277 98 212 181 b 366 493 212 377 266 458 b 553 273 477 455 553 390 b 382 98 553 177 491 98 m 386 950 b 529 788 488 950 529 870 b 401 608 529 705 472 637 b 238 794 304 641 238 698 b 386 950 238 873 285 950 "},"ｭ":{"x_min":88.890625,"x_max":602.78125,"ha":694,"o":"m 147 654 l 395 654 b 356 63 387 497 368 216 l 88 63 l 88 -41 l 602 -41 l 602 63 l 458 63 b 504 726 472 248 497 586 b 519 744 512 730 518 736 l 448 773 l 431 765 l 147 765 l 147 654 "},"Ｑ":{"x_min":188.890625,"x_max":1206.953125,"ha":1389,"o":"m 1206 -30 b 901 36 1112 -12 1000 12 l 901 43 b 1200 544 1072 104 1200 280 b 704 1081 1200 847 1011 1081 b 188 520 395 1081 188 847 b 668 -18 188 181 406 -8 b 737 -33 687 -18 713 -25 b 1159 -163 872 -79 1009 -120 l 1206 -30 m 694 116 b 361 526 486 116 361 293 b 698 950 361 750 473 950 b 1027 537 911 950 1027 751 b 694 116 1027 300 905 116 "},"ﾁ":{"x_min":64.390625,"x_max":636.609375,"ha":694,"o":"m 68 640 l 68 513 l 313 513 b 118 9 293 297 236 120 b 211 -81 147 -12 190 -56 b 417 513 346 63 397 281 l 636 513 l 636 640 l 428 640 b 439 952 435 736 438 841 b 578 1013 489 972 540 995 b 599 1019 588 1013 593 1013 l 514 1129 b 64 948 424 1066 211 983 b 108 852 79 922 97 881 b 332 919 176 868 258 893 b 324 640 332 819 329 726 l 68 640 "},"R":{"x_min":108.890625,"x_max":778.5625,"ha":826,"o":"m 555 508 b 741 777 660 548 741 641 b 658 986 741 863 713 937 b 362 1070 593 1045 498 1070 b 108 1048 268 1070 175 1061 l 108 0 l 265 0 l 265 450 l 360 450 b 549 254 470 450 521 395 b 615 0 575 123 600 30 l 778 0 b 700 288 758 40 732 150 b 555 505 676 401 632 476 l 555 508 m 265 570 l 265 936 b 375 945 284 941 322 945 b 583 761 488 945 583 898 b 371 570 583 647 502 570 l 265 570 "},"ﾖ":{"x_min":108.328125,"x_max":576.390625,"ha":694,"o":"m 125 901 l 473 901 l 473 598 l 141 598 l 141 476 l 473 476 l 473 161 l 108 161 l 108 40 l 473 40 l 473 -27 l 576 -27 l 576 1023 l 125 1023 l 125 901 "},"ｿ":{"x_min":60,"x_max":646.078125,"ha":694,"o":"m 516 1030 b 121 50 464 492 344 227 b 203 -49 147 24 184 -21 b 616 971 440 135 557 450 b 646 995 630 973 643 982 l 516 1030 m 287 609 b 155 981 265 723 211 875 l 60 930 b 182 550 111 823 162 657 l 287 609 "},"o":{"x_min":53.078125,"x_max":747.25,"ha":819,"o":"m 406 781 b 53 377 208 781 53 636 b 396 -15 53 130 201 -15 b 747 388 564 -15 747 102 b 406 781 747 623 612 781 m 585 384 b 400 105 585 231 514 105 b 215 381 284 105 215 231 b 401 661 215 513 266 661 b 585 384 533 661 585 511 "},"5":{"x_min":58.53125,"x_max":672.390625,"ha":781,"o":"m 179 1045 l 115 540 b 239 548 149 545 187 548 b 511 329 421 548 511 463 b 292 112 511 193 408 112 b 93 165 209 112 134 141 l 58 43 b 298 -15 106 12 197 -15 b 672 343 521 -15 672 141 b 325 668 672 556 511 668 b 257 663 296 668 277 665 l 291 912 l 650 912 l 650 1045 l 179 1045 "},"ﾈ":{"x_min":34.71875,"x_max":668.0625,"ha":694,"o":"m 195 1059 b 422 873 265 1016 368 933 l 501 965 b 269 1150 450 1019 336 1108 l 195 1059 m 108 737 l 440 737 b 34 250 351 562 198 372 b 113 165 63 225 97 193 b 308 368 179 219 251 290 l 308 -77 l 409 -77 l 409 498 b 572 787 473 595 527 681 b 600 804 579 790 598 795 l 519 868 l 501 855 l 108 855 l 108 737 m 438 411 b 608 202 500 344 563 270 l 668 313 b 490 500 620 370 552 443 l 438 411 "},",":{"x_min":20,"x_max":288.140625,"ha":343,"o":"m 116 200 b 20 -194 98 78 58 -88 l 128 -182 b 288 215 180 -95 248 76 l 116 200 "},"d":{"x_min":54.4375,"x_max":732.28125,"ha":844,"o":"m 726 1113 l 568 1113 l 568 679 l 566 679 b 367 781 533 737 464 781 b 54 375 200 781 54 634 b 353 -15 54 138 183 -15 b 581 119 460 -15 541 41 l 585 119 l 593 0 l 732 0 b 726 204 729 52 726 134 l 726 1113 m 568 313 b 400 115 568 206 502 115 b 215 380 280 115 215 230 b 402 654 215 531 281 654 b 568 455 491 654 568 580 l 568 313 "},"\"":{"x_min":70.78125,"x_max":462.78125,"ha":544,"o":"m 98 700 l 191 700 l 219 1088 l 70 1088 l 98 700 m 341 700 l 435 700 l 462 1088 l 314 1088 l 341 700 "},"ч":{"x_min":331.9375,"x_max":1023.609375,"ha":1389,"o":"m 866 291 l 866 -6 l 1023 -6 l 1023 773 l 866 773 l 866 398 b 680 354 811 372 750 354 b 490 502 536 354 490 412 l 490 773 l 331 773 l 331 487 b 630 238 331 319 451 238 b 862 291 713 238 804 259 l 866 291 "},"\u0012":{"x_min":0,"x_max":0,"ha":311},"ﾌ":{"x_min":94,"x_max":633,"ha":694,"o":"m 94 876 l 492 876 b 110 41 455 465 325 193 b 196 -56 134 18 178 -30 b 613 947 439 131 570 430 b 633 965 620 950 628 958 l 552 1016 l 535 1002 l 94 1002 l 94 876 "},"Ｉ":{"x_min":612.5,"x_max":775,"ha":1389,"o":"m 612 1072 l 612 -6 l 775 -6 l 775 1072 l 612 1072 "},"ﾒ":{"x_min":61,"x_max":611,"ha":694,"o":"m 119 740 b 331 541 184 690 259 618 b 61 29 265 353 170 165 b 152 -58 87 10 133 -30 b 409 453 258 82 351 279 b 545 271 466 389 512 325 l 611 404 b 454 583 574 454 520 516 b 567 1051 501 725 537 900 b 605 1076 587 1053 602 1064 l 470 1110 b 369 668 449 968 409 791 b 172 833 302 730 233 789 l 119 740 "},"И":{"x_min":295.828125,"x_max":1093.0625,"ha":1389,"o":"m 1093 1072 l 919 1072 l 612 558 b 434 218 543 437 487 325 l 430 218 b 444 665 440 355 444 494 l 444 1072 l 295 1072 l 295 -6 l 456 -6 l 762 505 b 948 859 829 622 893 747 l 954 858 b 944 409 947 730 944 590 l 944 -6 l 1093 -6 l 1093 1072 "},"р":{"x_min":327.78125,"x_max":1102.78125,"ha":1389,"o":"m 495 -320 l 495 100 l 498 100 b 740 -16 545 25 636 -16 b 1102 395 927 -16 1102 119 b 763 783 1102 620 959 783 b 483 636 634 783 537 725 l 480 636 l 472 773 l 327 773 b 334 515 331 695 334 605 l 334 -320 l 495 -320 m 495 444 b 713 655 495 516 561 655 b 938 390 858 655 938 536 b 708 112 938 223 848 112 b 495 316 602 112 495 191 l 495 444 "},"т":{"x_min":297.21875,"x_max":1088.890625,"ha":1389,"o":"m 612 640 l 612 -6 l 770 -6 l 770 640 l 1088 640 l 1088 766 l 297 766 l 297 640 l 612 640 "},"П":{"x_min":295.828125,"x_max":1093.0625,"ha":1389,"o":"m 452 0 l 452 931 l 936 931 l 936 0 l 1093 0 l 1093 1065 l 295 1065 l 295 0 l 452 0 "},"\u0001":{"x_min":0,"x_max":0,"ha":311},"z":{"x_min":28.578125,"x_max":608.421875,"ha":650,"o":"m 57 765 l 57 634 l 413 634 l 413 631 b 318 509 381 591 351 552 l 28 95 l 28 0 l 608 0 l 608 130 l 221 130 l 221 133 b 317 256 254 172 285 213 l 601 663 l 601 765 l 57 765 "},"\u000b":{"x_min":0,"x_max":0,"ha":311},"ﾃ":{"x_min":66.671875,"x_max":629.171875,"ha":694,"o":"m 129 966 l 573 966 l 573 1086 l 129 1086 l 129 966 m 66 712 l 66 593 l 308 593 b 104 13 301 368 245 131 b 193 -81 131 -9 175 -54 b 409 593 352 68 395 333 l 629 593 b 629 712 626 602 629 704 l 66 712 "},"｣":{"x_min":44.4375,"x_max":509.71875,"ha":694,"o":"m 413 847 l 413 -26 l 44 -26 l 44 -122 l 509 -122 l 509 847 l 413 847 "},"｠":{"x_min":44.4375,"x_max":495.828125,"ha":1389,"o":"m 44 1177 l 44 1168 b 213 527 138 1040 213 811 b 44 -112 213 244 138 15 l 44 -122 l 123 -122 b 284 527 208 6 284 244 b 123 1177 284 805 211 1044 l 44 1177 m 255 1177 l 255 1168 b 425 527 350 1040 425 811 b 255 -112 425 244 350 15 l 255 -122 l 334 -122 b 495 527 419 6 495 244 b 334 1177 495 805 422 1044 l 255 1177 "},"ｕ":{"x_min":341.671875,"x_max":1054.171875,"ha":1389,"o":"m 1047 773 l 884 773 l 884 304 b 681 116 884 204 794 116 b 504 354 554 116 504 209 l 504 773 l 341 773 l 341 330 b 625 -16 341 45 502 -16 b 898 134 772 -16 858 65 l 901 134 l 909 -6 l 1054 -6 b 1047 216 1050 58 1047 137 l 1047 773 "},"ｧ":{"x_min":88.890625,"x_max":604.171875,"ha":694,"o":"m 108 730 l 493 730 b 411 462 479 641 448 540 b 487 401 431 448 469 422 b 593 786 534 500 573 662 b 604 801 597 790 602 795 l 536 848 l 522 840 l 108 840 l 108 730 m 270 588 b 88 -41 262 300 202 95 b 169 -119 115 -58 154 -98 b 359 551 294 33 344 279 b 381 575 373 554 380 562 l 270 588 "},"ｙ":{"x_min":306,"x_max":1082,"ha":1389,"o":"m 306 773 l 605 61 b 615 25 612 44 615 31 b 361 -211 615 22 564 -162 l 399 -350 b 586 -262 436 -345 511 -323 b 854 193 680 -188 750 -70 l 1082 773 l 911 773 l 758 331 b 709 166 741 279 722 212 l 705 166 b 653 329 693 212 669 280 l 483 773 l 306 773 "},"и":{"x_min":343.0625,"x_max":1045.828125,"ha":1389,"o":"m 519 -6 b 761 376 587 86 684 250 b 897 609 811 458 854 540 l 906 609 b 897 290 900 491 897 422 l 897 -6 l 1045 -6 l 1045 773 l 862 773 l 618 395 b 487 159 566 313 531 247 l 480 159 b 490 477 487 251 490 359 l 490 773 l 343 773 l 343 -6 l 519 -6 "},"~":{"x_min":80.171875,"x_max":841.71875,"ha":940,"o":"m 736 569 b 660 438 735 483 710 438 b 484 502 611 438 560 463 b 270 575 389 551 336 575 b 80 327 160 575 76 495 l 185 327 b 269 458 187 420 219 458 b 443 390 318 458 370 429 b 660 319 541 340 596 319 b 841 569 763 319 849 388 l 736 569 "},"ｸ":{"x_min":50,"x_max":619,"ha":694,"o":"m 523 911 l 327 911 b 366 1086 342 970 355 1029 b 394 1104 380 1087 391 1093 l 265 1131 b 50 520 226 887 147 658 b 137 429 76 502 122 454 b 291 787 202 531 254 654 l 494 787 b 122 9 455 488 355 187 b 209 -81 149 -12 194 -56 b 609 862 469 136 560 463 b 619 883 613 866 617 873 l 542 919 l 523 911 "},"[":{"x_min":115.6875,"x_max":396.078125,"ha":447,"o":"m 396 -77 l 236 -77 l 236 983 l 396 983 l 396 1081 l 115 1081 l 115 -176 l 396 -176 l 396 -77 "},"ﾑ":{"x_min":54,"x_max":655,"ha":694,"o":"m 54 130 l 78 -9 b 108 15 92 -6 103 3 b 528 62 221 26 412 47 b 548 -51 537 22 542 -16 l 655 8 b 487 552 632 153 556 394 l 405 508 b 509 164 439 418 480 289 b 231 140 424 155 323 146 b 384 1038 274 379 345 795 b 416 1063 399 1040 414 1051 l 270 1100 b 131 135 237 832 173 398 l 54 130 "},"＿":{"x_min":0,"x_max":1388.890625,"ha":1389,"o":"m 0 -166 l 1388 -166 l 1388 -105 l 0 -105 l 0 -166 "},"２":{"x_min":320.828125,"x_max":1072.21875,"ha":1389,"o":"m 436 800 b 681 919 511 876 593 919 b 869 741 795 919 869 843 b 450 215 869 586 727 459 l 320 104 l 320 0 l 1072 0 l 1072 141 l 580 141 l 580 144 l 684 229 b 1045 756 897 413 1045 556 b 711 1066 1045 933 922 1066 b 359 922 545 1066 444 1009 l 436 800 "},"К":{"x_min":315.28125,"x_max":1129.171875,"ha":1389,"o":"m 470 0 l 470 477 b 851 250 644 477 766 461 b 958 0 886 165 912 73 l 1129 0 b 998 301 1076 94 1043 193 b 665 576 938 441 861 548 l 1115 1065 l 918 1065 l 520 594 l 470 594 l 470 1065 l 315 1065 l 315 0 l 470 0 "},"\u001d":{"x_min":0,"x_max":0,"ha":311},"\u000f":{"x_min":0,"x_max":0,"ha":311},"｀":{"x_min":456,"x_max":789,"ha":1389,"o":"m 456 1313 l 659 1122 l 789 1122 l 646 1313 l 456 1313 "},"%":{"x_min":44.921875,"x_max":1156.953125,"ha":1226,"o":"m 283 1041 b 44 722 148 1041 44 919 b 277 412 44 526 148 412 b 514 736 401 412 514 520 b 283 1041 514 915 432 1041 m 280 948 b 393 729 364 948 393 845 b 280 506 393 604 360 506 b 166 720 204 506 166 602 b 280 948 166 825 193 948 m 925 616 b 686 297 788 616 686 494 b 918 -12 686 100 789 -12 b 1156 309 1045 -12 1156 94 b 925 616 1156 488 1075 616 m 922 523 b 1035 302 1007 523 1035 419 b 922 81 1035 177 1003 81 b 807 301 846 81 807 179 b 922 523 807 409 838 523 m 935 1043 l 839 1043 l 264 -19 l 357 -19 l 935 1043 "},"P":{"x_min":108.890625,"x_max":743.171875,"ha":813,"o":"m 108 0 l 265 0 l 265 416 b 353 410 291 411 321 410 b 743 757 541 410 743 498 b 649 986 743 854 707 935 b 362 1071 586 1043 490 1071 b 108 1050 254 1071 171 1061 l 108 0 m 265 935 b 371 944 285 939 322 944 b 585 750 498 944 585 879 b 353 537 585 614 498 537 b 265 546 317 537 288 539 l 265 935 "},"_":{"x_min":0,"x_max":773.109375,"ha":789,"o":"m 0 -173 l 773 -173 l 773 -104 l 0 -104 l 0 -173 "},"ы":{"x_min":233.328125,"x_max":1155.5625,"ha":1389,"o":"m 233 4 b 451 -7 291 -2 366 -7 b 909 261 708 -7 909 64 b 529 519 909 456 708 519 b 390 511 480 519 430 517 l 390 774 l 233 774 l 233 4 m 1155 -6 l 1155 772 l 997 772 l 997 -6 l 1155 -6 m 390 401 b 490 407 423 404 455 407 b 752 254 616 407 752 372 b 497 104 752 142 625 104 b 390 108 450 104 419 107 l 390 401 "},"！":{"x_min":581.9375,"x_max":802.78125,"ha":1389,"o":"m 758 326 l 786 1063 l 602 1063 l 630 326 l 758 326 m 691 -16 b 802 97 752 -16 802 33 b 691 209 802 159 752 209 b 581 97 630 209 581 159 b 691 -16 581 36 627 -16 "},"ｄ":{"x_min":286.09375,"x_max":1056.953125,"ha":1389,"o":"m 888 1125 l 888 669 l 886 669 b 647 783 852 725 773 783 b 286 370 448 783 284 626 b 630 -16 286 147 430 -16 b 902 133 758 -16 856 44 l 905 133 l 913 -6 l 1056 -6 b 1051 211 1052 51 1051 134 l 1051 1125 l 888 1125 m 888 326 b 679 112 888 204 795 112 b 448 377 531 112 448 229 b 680 654 448 537 540 654 b 888 450 769 654 888 598 l 888 326 "},"Ｂ":{"x_min":302.78125,"x_max":1120.828125,"ha":1389,"o":"m 302 5 b 566 -8 366 -2 461 -8 b 1023 94 804 -8 940 22 b 1120 308 1081 144 1120 215 b 883 563 1120 462 993 541 l 883 569 b 1075 798 1004 605 1075 701 b 970 997 1075 884 1036 954 b 626 1073 891 1056 784 1073 b 302 1048 504 1073 377 1063 l 302 5 m 463 941 b 637 952 493 945 543 952 b 912 783 787 952 912 920 b 652 613 912 691 829 613 l 463 613 l 463 941 m 463 494 l 633 494 b 950 308 815 494 950 444 b 625 115 950 148 770 115 b 463 122 556 115 505 115 l 463 494 "},"T":{"x_min":8.171875,"x_max":728.203125,"ha":751,"o":"m 728 1062 l 8 1062 l 8 925 l 288 925 l 288 0 l 446 0 l 446 925 l 728 925 l 728 1062 "},"ﾙ":{"x_min":18.0625,"x_max":677.78125,"ha":694,"o":"m 333 91 l 325 73 l 383 -20 b 397 5 393 -13 395 -4 b 677 627 544 133 637 351 b 593 697 658 647 612 673 b 430 190 565 493 519 306 l 430 1052 b 461 1083 451 1058 459 1069 l 333 1097 l 333 91 m 130 901 b 18 37 129 487 106 190 b 97 -68 37 18 81 -44 b 227 863 206 137 223 429 b 255 890 244 868 254 873 l 130 901 "},"ｻ":{"x_min":45.515625,"x_max":648.28125,"ha":694,"o":"m 160 820 l 45 820 l 45 695 l 160 695 l 160 338 l 262 338 l 262 695 l 431 695 l 431 650 b 216 36 431 412 396 180 b 294 -65 242 6 276 -33 b 530 648 485 91 530 372 l 530 695 l 648 695 l 648 820 l 530 820 l 530 1088 b 548 1116 541 1093 546 1102 l 431 1125 l 431 820 l 262 820 l 262 1059 b 289 1090 278 1063 288 1076 l 160 1101 l 160 820 "},"Ｘ":{"x_min":231,"x_max":1157,"ha":1389,"o":"m 1157 -6 l 791 543 l 1147 1072 l 958 1072 l 800 809 b 697 625 757 737 728 686 l 694 625 b 589 811 664 680 632 736 l 435 1072 l 244 1072 l 583 537 l 231 -6 l 418 -6 l 555 229 b 679 448 616 330 650 390 l 682 448 b 815 229 716 390 751 327 l 964 -6 l 1157 -6 "},"j":{"x_min":-62.609375,"x_max":289.921875,"ha":383,"o":"m 289 976 b 198 1070 289 1030 254 1070 b 106 976 144 1070 106 1030 b 197 883 106 925 142 883 b 289 976 254 883 289 925 m 277 766 l 119 766 l 119 119 b -62 -202 119 -104 100 -186 l -46 -329 b 186 -245 31 -329 126 -304 b 277 69 251 -180 277 -86 l 277 766 "},"1":{"x_min":134.75,"x_max":499.53125,"ha":781,"o":"m 499 0 l 499 1045 l 366 1045 l 134 919 l 170 801 l 343 898 l 345 898 l 345 0 l 499 0 "},"ﾚ":{"x_min":122.21875,"x_max":670.828125,"ha":694,"o":"m 133 93 l 122 70 l 177 -33 b 204 2 191 -25 202 -9 b 670 600 412 113 594 325 b 581 684 643 626 604 654 b 241 159 529 456 405 254 l 241 1061 b 279 1091 262 1066 277 1076 l 133 1102 l 133 93 "},"<":{"x_min":98,"x_max":822.109375,"ha":940,"o":"m 822 0 l 822 125 l 231 418 l 231 420 l 822 715 l 822 840 l 98 466 l 98 372 l 822 0 "},"￤":{"x_min":663.890625,"x_max":725,"ha":1389,"o":"m 663 597 l 725 597 l 725 1152 l 663 1152 l 663 597 m 663 -97 l 725 -97 l 725 458 l 663 458 l 663 -97 "},"ｯ":{"x_min":73.90625,"x_max":621.15625,"ha":694,"o":"m 385 498 b 348 835 385 602 369 723 l 267 822 b 304 486 287 722 303 584 l 385 498 m 514 801 b 161 -36 475 414 371 152 b 242 -114 190 -57 226 -87 b 597 757 453 98 554 376 b 621 775 608 758 618 765 l 514 801 m 217 455 b 148 775 208 548 183 673 l 73 753 b 135 437 105 650 129 520 l 217 455 "},"Ｆ":{"x_min":327.78125,"x_max":1079.171875,"ha":1389,"o":"m 327 -6 l 490 -6 l 490 473 l 1033 473 l 1033 608 l 490 608 l 490 930 l 1079 930 l 1079 1065 l 327 1065 l 327 -6 "},"Ц":{"x_min":280.5625,"x_max":1163.890625,"ha":1389,"o":"m 1023 0 l 1033 -250 l 1154 -250 l 1163 126 l 1073 130 l 1073 1065 l 915 1065 l 915 133 l 437 133 l 437 1065 l 280 1065 l 280 0 l 1023 0 "},"t":{"x_min":25.859375,"x_max":466.859375,"ha":513,"o":"m 132 765 l 25 765 l 25 644 l 132 644 l 132 248 b 187 43 132 148 149 84 b 336 -15 220 5 273 -15 b 458 2 389 -15 431 -8 l 453 126 b 383 116 434 120 415 116 b 288 256 317 116 288 162 l 288 644 l 466 644 l 466 765 l 288 765 l 288 954 l 132 904 l 132 765 "},"ｰ":{"x_min":83.328125,"x_max":606.9375,"ha":694,"o":"m 83 431 l 606 431 l 606 562 l 83 562 l 83 431 "},"＾":{"x_min":481,"x_max":937,"ha":1389,"o":"m 647 1313 l 481 1120 l 606 1120 l 704 1234 l 709 1234 l 806 1120 l 937 1120 l 764 1313 l 647 1313 "},"Ф":{"x_min":175,"x_max":1213.890625,"ha":1389,"o":"m 622 1012 b 175 528 415 996 175 866 b 622 53 175 196 390 71 l 622 -42 l 768 -42 l 768 53 b 1213 532 998 71 1213 202 b 768 1012 1213 859 997 998 l 768 1103 l 622 1103 l 622 1012 m 622 169 b 333 531 476 182 333 287 b 622 898 333 796 491 888 l 622 169 m 768 898 b 1055 532 906 889 1055 798 b 768 169 1055 277 908 180 l 768 898 "},"１":{"x_min":402.78125,"x_max":838.890625,"ha":1389,"o":"m 670 -8 l 838 -8 l 838 1055 l 695 1055 l 402 906 l 448 775 l 666 887 l 670 887 l 670 -8 "},"ｏ":{"x_min":294.4375,"x_max":1094.453125,"ha":1389,"o":"m 690 -16 b 1094 391 886 -16 1094 105 b 701 783 1094 615 938 783 b 294 375 470 783 294 629 b 690 -16 294 141 458 -16 m 694 102 b 458 381 551 102 458 219 b 697 663 458 523 533 663 b 930 386 861 663 930 515 b 694 102 930 209 823 102 "},"ｈ":{"x_min":341.671875,"x_max":1047.21875,"ha":1389,"o":"m 341 -6 l 504 -6 l 504 454 b 704 650 504 562 600 650 b 884 427 837 650 884 550 l 884 -6 l 1047 -6 l 1047 436 b 763 783 1047 709 883 783 b 506 641 672 783 572 740 l 504 641 l 504 1125 l 341 1125 l 341 -6 "},"О":{"x_min":188.890625,"x_max":1200,"ha":1389,"o":"m 687 -16 b 1200 544 973 -16 1200 184 b 701 1081 1200 850 1009 1081 b 188 522 401 1081 188 851 b 687 -16 188 216 380 -16 m 694 115 b 359 526 480 115 359 300 b 695 950 359 751 473 950 b 1029 537 918 950 1029 744 b 694 115 1029 300 906 115 "},"&":{"x_min":45.796875,"x_max":913.546875,"ha":940,"o":"m 746 192 b 894 585 826 289 869 426 l 752 585 b 664 290 737 472 710 365 b 443 561 600 365 514 474 l 443 567 b 656 850 597 651 656 740 b 421 1079 656 993 552 1079 b 156 815 247 1079 156 947 b 239 593 156 739 188 660 l 237 589 b 45 282 122 519 45 419 b 363 -14 45 126 156 -14 b 645 96 473 -14 567 21 b 729 0 680 54 703 28 l 913 0 l 746 192 m 389 105 b 196 307 273 105 196 196 b 308 503 196 404 258 467 b 570 189 405 385 505 265 b 389 105 541 155 484 105 m 412 971 b 518 843 488 971 518 904 b 371 649 518 762 464 707 b 299 829 329 704 299 760 b 412 971 299 900 334 971 "},"I":{"x_min":108.890625,"x_max":266.78125,"ha":382,"o":"m 108 0 l 266 0 l 266 1062 l 108 1062 l 108 0 "},"Ｊ":{"x_min":355.5625,"x_max":944.453125,"ha":1389,"o":"m 781 426 b 548 120 781 180 679 120 b 384 154 483 120 429 134 l 355 19 b 558 -16 412 -4 491 -16 b 944 429 795 -16 944 95 l 944 1072 l 781 1072 l 781 426 "},"G":{"x_min":52.671875,"x_max":857.078125,"ha":957,"o":"m 857 572 l 524 572 l 524 443 l 704 443 l 704 143 b 565 120 681 130 633 120 b 218 530 361 120 218 262 b 586 937 218 800 372 937 b 793 897 681 937 744 919 l 828 1029 b 586 1073 776 1055 688 1073 b 52 523 274 1073 52 868 b 560 -11 52 354 109 -11 b 857 43 684 -11 798 19 l 857 572 "},"ｼ":{"x_min":50,"x_max":654,"ha":694,"o":"m 141 971 b 338 818 206 930 292 865 l 392 934 b 194 1078 354 972 262 1037 l 141 971 m 187 -47 b 204 -10 193 -41 204 -24 b 654 796 417 137 567 419 b 567 857 629 809 587 837 b 119 79 484 475 344 219 l 187 -47 m 50 636 b 255 489 106 604 212 530 l 309 598 b 99 739 263 640 163 704 l 50 636 "},"`":{"x_min":33.71875,"x_max":325,"ha":472,"o":"m 216 866 l 325 866 l 194 1093 l 33 1093 l 216 866 "},"Ｅ":{"x_min":330.5625,"x_max":1081.953125,"ha":1389,"o":"m 1025 622 l 494 622 l 494 930 l 1054 930 l 1054 1065 l 330 1065 l 330 0 l 1081 0 l 1081 134 l 494 134 l 494 488 l 1025 488 l 1025 622 "},"Ｐ":{"x_min":318.0625,"x_max":1109.71875,"ha":1389,"o":"m 318 -7 l 479 -7 l 479 403 b 626 394 522 396 572 394 b 1109 749 911 394 1109 502 b 1001 978 1109 846 1068 924 b 638 1074 918 1046 800 1074 b 318 1052 500 1074 394 1064 l 318 -7 m 479 935 b 651 948 508 941 568 948 b 947 741 808 948 947 892 b 636 521 947 609 834 521 b 479 535 575 521 522 524 l 479 935 "},"я":{"x_min":283.328125,"x_max":1050,"ha":1389,"o":"m 581 356 b 476 309 537 348 502 333 b 337 79 405 258 381 172 b 283 -6 322 47 302 16 l 456 -6 b 494 55 470 11 483 33 b 631 265 536 134 555 216 b 788 311 668 291 716 308 l 895 312 l 895 -6 l 1050 -6 l 1050 758 b 772 773 973 766 877 773 b 343 554 468 773 343 681 b 581 361 343 434 468 375 l 581 356 m 768 412 b 504 545 651 412 504 452 b 765 672 504 643 637 672 b 895 665 818 672 854 669 l 895 412 l 768 412 "},"\u0005":{"x_min":0,"x_max":0,"ha":311},"\b":{"x_min":0,"x_max":0,"ha":311},"Ё":{"x_min":330.5625,"x_max":1081.953125,"ha":1389,"o":"m 497 1305 b 413 1218 451 1305 413 1266 b 495 1133 413 1176 444 1133 b 577 1218 544 1133 577 1172 b 497 1305 577 1265 543 1305 m 890 1305 b 806 1218 844 1305 806 1266 b 888 1133 806 1176 838 1133 b 970 1218 937 1133 970 1172 b 890 1305 970 1265 936 1305 m 493 622 l 493 931 l 1054 931 l 1054 1065 l 330 1065 l 330 0 l 1081 0 l 1081 134 l 493 134 l 493 488 l 1025 488 l 1025 622 l 493 622 "},";":{"x_min":20.421875,"x_max":291.28125,"ha":343,"o":"m 117 200 b 20 -194 99 79 58 -87 l 127 -181 b 287 215 179 -95 246 76 l 117 200 m 190 531 b 291 640 253 531 291 579 b 191 750 291 705 251 750 b 91 640 133 750 91 704 b 190 531 91 581 127 531 "},"ｓ":{"x_min":363.328125,"x_max":1023.046875,"ha":1389,"o":"m 363 54 b 659 -16 442 12 539 -16 b 1023 216 921 -16 1023 97 b 752 450 1023 345 936 413 b 546 568 603 479 546 502 b 707 666 546 623 604 666 b 950 609 821 666 899 634 l 985 725 b 729 783 934 754 841 783 b 392 547 510 783 392 677 b 678 320 392 438 477 359 b 868 205 820 294 868 269 b 679 100 868 152 820 100 b 398 172 577 100 474 129 l 363 54 "},"Г":{"x_min":362.5,"x_max":1081.953125,"ha":1389,"o":"m 525 0 l 525 925 l 1081 925 l 1081 1065 l 362 1065 l 362 0 l 525 0 "},"ｾ":{"x_min":48.609375,"x_max":651.390625,"ha":694,"o":"m 215 702 l 48 618 l 76 498 l 215 572 l 215 231 b 381 -26 215 65 234 -26 l 497 -26 b 604 -19 526 -26 576 -25 b 601 104 604 18 602 63 b 495 94 569 95 526 94 l 391 94 b 315 227 315 94 315 140 l 315 626 l 530 740 b 425 434 508 629 468 513 b 502 336 444 416 484 362 b 636 823 559 451 609 641 b 651 844 641 827 650 836 l 575 894 l 559 876 l 315 751 l 315 1061 b 351 1094 338 1065 350 1079 l 215 1104 l 215 702 "},"6":{"x_min":49,"x_max":718.671875,"ha":781,"o":"m 208 577 b 626 934 230 731 334 934 l 624 1062 b 213 900 480 1062 319 1013 b 49 427 115 794 49 631 b 394 -13 49 168 176 -13 b 718 354 597 -13 718 159 b 434 686 718 559 598 686 b 210 577 334 686 258 638 l 208 577 m 394 106 b 205 388 274 106 208 225 b 385 570 205 483 294 570 b 560 344 492 570 560 480 b 394 106 560 206 498 106 "},"Ь":{"x_min":340.28125,"x_max":1104.171875,"ha":1389,"o":"m 340 4 b 561 -8 384 -1 455 -8 b 1104 343 936 -8 1104 138 b 638 674 1104 568 887 674 b 497 668 593 674 533 672 l 497 1065 l 340 1065 l 340 4 m 497 544 b 616 551 531 548 575 551 b 938 336 783 551 938 484 b 611 113 938 193 795 113 b 497 120 562 113 531 116 l 497 544 "},"n":{"x_min":95.28125,"x_max":720.03125,"ha":835,"o":"m 720 468 b 472 781 720 704 589 781 b 245 651 359 781 280 716 l 240 651 l 232 765 l 95 765 b 100 550 98 700 100 634 l 100 0 l 258 0 l 258 461 b 419 648 258 583 341 648 b 562 448 526 648 562 556 l 562 0 l 720 0 l 720 468 "},"\u0017":{"x_min":0,"x_max":0,"ha":311},"ﾕ":{"x_min":51.390625,"x_max":645.828125,"ha":694,"o":"m 119 855 l 416 855 b 376 165 408 655 390 333 l 51 165 l 51 38 l 645 38 l 645 165 l 484 165 b 537 940 501 376 527 763 b 554 962 545 945 552 952 l 473 993 l 455 981 l 119 981 l 119 855 "},"p":{"x_min":95.28125,"x_max":778.5625,"ha":850,"o":"m 242 648 l 234 765 l 95 765 b 100 518 98 697 100 618 l 100 -309 l 258 -309 l 258 90 l 261 90 b 461 -15 298 27 371 -15 b 778 391 619 -15 778 111 b 483 781 778 629 651 781 b 245 648 378 781 296 734 l 242 648 m 258 450 b 432 652 258 562 338 652 b 617 386 553 652 617 531 b 428 112 617 227 551 112 b 258 308 351 112 258 170 l 258 450 "},"［":{"x_min":997.21875,"x_max":1344.453125,"ha":1389,"o":"m 1344 -122 l 1344 -34 l 1086 -34 l 1086 1090 l 1344 1090 l 1344 1177 l 997 1177 l 997 -122 l 1344 -122 "},"ｫ":{"x_min":48.609375,"x_max":593.0625,"ha":694,"o":"m 356 669 l 112 669 l 112 562 l 330 562 b 48 136 268 398 148 230 b 105 43 70 111 94 70 b 358 423 205 138 302 287 l 362 30 b 305 -9 362 -9 347 -9 b 230 -6 280 -9 250 -8 b 262 -113 241 -37 255 -84 b 452 27 394 -113 452 -90 l 450 562 l 593 562 l 593 669 l 448 669 l 447 879 b 473 904 462 881 472 891 l 355 909 l 356 669 "},"￣":{"x_min":0,"x_max":1388.890625,"ha":1389,"o":"m 0 1161 l 1388 1161 l 1388 1222 l 0 1222 l 0 1161 "},"Ю":{"x_min":88.890625,"x_max":1343.0625,"ha":1389,"o":"m 88 0 l 245 0 l 245 476 l 384 476 b 855 -16 400 186 576 -16 b 1343 543 1131 -16 1343 170 b 872 1081 1343 829 1183 1081 b 388 612 595 1081 416 880 l 245 612 l 245 1065 l 88 1065 l 88 0 m 863 112 b 540 527 644 112 540 312 b 863 952 540 748 644 952 b 1183 536 1084 952 1183 752 b 863 112 1183 301 1073 112 "},"S":{"x_min":58.6875,"x_max":673.90625,"ha":749,"o":"m 634 1030 b 415 1079 589 1054 514 1079 b 76 784 208 1079 76 952 b 336 480 76 640 181 544 b 513 281 460 427 513 372 b 320 120 513 186 443 120 b 94 183 234 120 149 148 l 58 48 b 310 -15 109 13 212 -15 b 673 295 544 -15 673 118 b 426 609 673 441 593 534 b 235 802 294 668 235 712 b 411 944 235 870 287 944 b 596 897 496 944 562 916 l 634 1030 "},"/":{"x_min":4,"x_max":509,"ha":514,"o":"m 509 1079 l 393 1079 l 4 -63 l 118 -63 l 509 1079 "},"＄":{"x_min":319.578125,"x_max":1070.96875,"ha":1389,"o":"m 643 1012 b 341 744 437 988 341 870 b 679 452 341 608 440 516 b 907 290 833 413 907 372 b 673 156 907 206 814 156 b 364 234 551 156 440 184 l 319 106 b 636 20 393 54 505 23 l 636 -138 l 757 -138 l 757 26 b 1070 301 968 51 1070 176 b 752 595 1070 456 983 533 b 505 755 573 647 505 691 b 711 880 505 812 547 880 b 987 812 851 880 939 838 l 1032 940 b 764 1015 962 981 890 1009 l 764 1180 l 643 1180 l 643 1012 "},"ﾓ":{"x_min":61.109375,"x_max":633.328125,"ha":694,"o":"m 101 915 l 256 915 l 256 619 l 61 619 l 61 495 l 256 495 l 256 154 b 400 -25 256 22 293 -25 l 523 -25 b 611 -19 544 -25 587 -23 b 608 101 609 13 608 63 b 522 94 586 94 545 94 l 413 94 b 359 155 369 94 359 106 l 359 495 l 633 495 l 633 619 l 359 619 l 359 915 l 572 915 l 572 1043 l 101 1043 l 101 915 "},"y":{"x_min":14,"x_max":694.578125,"ha":719,"o":"m 528 765 l 407 334 b 367 181 393 283 378 226 l 363 181 b 323 334 352 226 337 284 l 186 765 l 14 765 l 271 59 b 279 26 278 44 279 34 b 57 -209 279 5 220 -150 l 98 -345 b 272 -247 135 -337 204 -311 b 513 234 362 -158 425 -16 l 694 765 l 528 765 "},"g":{"x_min":54.140625,"x_max":726.53125,"ha":838,"o":"m 586 765 l 579 662 l 576 662 b 371 781 545 723 482 781 b 54 377 207 781 54 637 b 352 4 54 163 175 4 b 560 116 448 4 522 51 l 563 116 l 563 43 b 353 -200 563 -130 476 -200 b 150 -145 269 -200 197 -173 l 115 -270 b 352 -326 173 -306 265 -326 b 719 108 707 -326 719 -44 l 719 544 b 726 765 719 647 722 711 l 586 765 m 561 319 b 398 127 561 191 480 127 b 214 384 281 127 214 234 b 399 654 214 548 290 654 b 561 469 496 654 561 570 l 561 319 "},"（":{"x_min":976.390625,"x_max":1344.453125,"ha":1389,"o":"m 1344 1177 l 1238 1177 b 976 527 1097 1051 976 812 b 1238 -122 976 243 1097 4 l 1344 -122 l 1344 -115 b 1069 527 1197 8 1069 243 b 1344 1170 1069 806 1193 1044 l 1344 1177 "},"Ａ":{"x_min":217,"x_max":1173,"ha":1389,"o":"m 888 318 l 997 -6 l 1173 -6 l 790 1072 l 597 1072 l 217 -6 l 385 -6 l 493 318 l 888 318 m 522 443 l 629 741 b 688 927 650 804 671 866 l 690 927 b 750 740 707 868 726 806 l 857 443 l 522 443 "},"б":{"x_min":303.296875,"x_max":1086.625,"ha":1389,"o":"m 447 622 b 826 972 479 905 682 952 b 994 1004 883 979 954 990 l 1004 1136 b 793 1094 950 1119 858 1104 b 303 487 606 1066 303 984 b 697 -16 303 215 418 -16 b 1086 391 944 -16 1086 154 b 736 783 1086 633 939 783 b 454 622 618 783 506 719 l 447 622 m 922 383 b 697 102 922 245 861 102 b 469 401 528 102 469 286 b 694 666 469 566 575 666 b 922 383 871 666 922 505 "},"９":{"x_min":303.890625,"x_max":1084.453125,"ha":1389,"o":"m 901 463 b 462 115 859 227 645 115 b 415 118 444 115 428 116 l 428 -16 b 516 -13 453 -18 485 -16 b 1084 613 887 12 1084 283 b 680 1066 1084 859 949 1066 b 303 698 458 1066 303 904 b 641 355 303 481 456 355 b 896 463 758 355 842 401 l 901 463 m 680 936 b 913 658 878 936 913 741 b 696 481 913 595 830 481 b 483 712 565 481 483 570 b 680 936 483 854 571 936 "},"J":{"x_min":2.71875,"x_max":451.890625,"ha":561,"o":"m 451 1063 l 294 1063 l 294 358 b 125 122 294 169 230 122 b 21 138 83 122 47 129 l 2 5 b 138 -15 35 -6 91 -15 b 451 352 321 -15 451 72 l 451 1063 "},"у":{"x_min":305.96875,"x_max":1082,"ha":1389,"o":"m 605 61 b 615 23 612 44 615 31 b 361 -211 615 0 535 -170 l 399 -350 b 854 193 646 -312 758 -50 l 1082 773 l 909 773 l 758 327 b 709 165 741 275 722 212 l 705 165 b 653 325 693 212 669 276 l 483 773 l 305 773 l 605 61 "},"＞":{"x_min":158,"x_max":1245.5,"ha":1389,"o":"m 158 961 l 1002 526 l 1002 521 l 158 86 l 210 -15 l 1245 521 l 1245 526 l 210 1062 l 158 961 "},"．":{"x_min":84.71875,"x_max":309.71875,"ha":1389,"o":"m 197 211 b 84 100 136 211 84 161 b 197 -12 84 37 136 -12 b 309 100 259 -12 309 37 b 197 211 309 158 262 211 "},"ｹ":{"x_min":43.0625,"x_max":638.890625,"ha":694,"o":"m 377 697 b 158 15 362 440 311 165 b 251 -73 187 -8 231 -47 b 480 697 406 84 461 391 l 638 697 l 638 826 l 262 826 b 306 1081 280 911 295 998 b 338 1102 322 1084 336 1090 l 200 1129 b 43 515 172 890 125 645 b 125 413 73 483 105 448 b 233 697 169 491 204 588 l 377 697 "},"\f":{"x_min":0,"x_max":0,"ha":311},"D":{"x_min":108.890625,"x_max":910.578125,"ha":983,"o":"m 108 2 b 334 -9 167 -5 242 -9 b 760 130 518 -9 666 37 b 910 554 852 220 910 361 l 910 555 b 374 1070 910 791 818 1070 b 108 1048 276 1070 183 1061 l 108 2 m 266 931 b 389 943 294 937 334 943 b 744 551 613 943 744 809 b 368 119 744 258 602 118 b 266 125 332 119 294 120 l 266 931 "},"ｖ":{"x_min":293,"x_max":1096,"ha":1389,"o":"m 293 773 l 623 -6 l 757 -6 l 1096 773 l 922 773 l 768 358 b 698 150 738 281 718 215 l 694 150 b 627 358 675 218 655 280 l 473 773 l 293 773 "},"ц":{"x_min":325,"x_max":1112.5,"ha":1389,"o":"m 976 0 l 983 -234 l 1105 -234 l 1112 112 l 1036 115 l 1036 773 l 877 773 l 877 123 l 481 123 l 481 773 l 325 773 l 325 0 l 976 0 "},"＝":{"x_min":194.4375,"x_max":1194.453125,"ha":1389,"o":"m 194 637 l 1194 637 l 1194 752 l 194 752 l 194 637 m 1194 318 l 1194 433 l 194 433 l 194 318 l 1194 318 "},"ｐ":{"x_min":327.78125,"x_max":1102.78125,"ha":1389,"o":"m 334 -320 l 497 -320 l 497 100 l 500 100 b 740 -16 547 25 636 -16 b 1102 395 927 -16 1102 119 b 763 783 1102 620 959 783 b 483 636 634 783 537 725 l 480 636 l 472 773 l 327 773 b 334 515 331 695 334 605 l 334 -320 m 497 444 b 713 654 497 527 570 654 b 938 390 858 654 938 536 b 708 112 938 225 847 112 b 497 316 604 112 497 191 l 497 444 "},"Л":{"x_min":187.5,"x_max":1120.828125,"ha":1389,"o":"m 218 -18 b 369 37 273 -13 329 11 b 531 622 512 136 531 386 l 531 931 l 962 931 l 962 0 l 1120 0 l 1120 1065 l 376 1065 l 376 608 b 275 156 376 419 366 230 b 187 113 254 138 219 119 l 218 -18 "},"$":{"x_min":92.875,"x_max":665.90625,"ha":781,"o":"m 429 30 b 665 308 580 58 665 172 b 433 600 665 452 588 529 b 257 776 318 656 257 698 b 408 906 257 838 307 906 b 593 855 491 906 555 876 l 631 973 b 438 1026 588 998 525 1023 l 438 1177 l 329 1177 l 329 1018 b 103 754 190 990 103 888 b 335 481 103 616 200 544 b 509 291 459 426 509 375 b 344 144 509 209 452 144 b 130 209 261 144 182 176 l 92 87 b 320 22 144 52 234 25 l 320 -137 l 429 -137 l 429 30 "},"w":{"x_min":23,"x_max":1068.328125,"ha":1111,"o":"m 911 765 l 824 404 b 774 154 804 315 786 233 l 770 154 b 711 405 755 234 734 316 l 613 765 l 484 765 l 380 397 b 321 154 359 318 336 233 l 318 154 b 269 398 304 234 287 316 l 186 765 l 23 765 l 238 0 l 380 0 l 483 337 b 541 583 506 413 526 491 l 545 583 b 601 338 562 493 578 419 l 698 0 l 841 0 l 1068 765 l 911 765 "},"\\":{"x_min":4,"x_max":488.5625,"ha":503,"o":"m 119 1079 l 4 1079 l 374 -63 l 488 -63 l 119 1079 "},"о":{"x_min":294.4375,"x_max":1094.453125,"ha":1389,"o":"m 690 -16 b 1094 391 884 -16 1094 105 b 701 783 1094 615 938 783 b 294 375 470 783 294 629 b 690 -16 294 144 456 -16 m 694 102 b 458 380 550 102 458 225 b 697 663 458 523 533 663 b 930 386 861 663 930 515 b 694 102 930 209 822 102 "},"ｽ":{"x_min":22,"x_max":648,"ha":694,"o":"m 435 923 b 22 68 359 577 196 245 b 83 -45 42 44 71 -13 b 355 381 185 63 278 220 b 567 -48 421 252 523 55 l 648 63 b 406 500 595 166 481 370 b 552 979 466 645 520 834 b 573 998 559 983 571 988 l 493 1056 l 471 1048 l 94 1048 l 94 923 l 435 923 "},"Д":{"x_min":178.234375,"x_max":1210.171875,"ha":1389,"o":"m 399 791 b 258 130 399 454 350 309 l 178 126 l 186 -250 l 310 -250 l 318 0 l 1069 0 l 1078 -250 l 1200 -250 l 1210 126 l 1118 130 l 1118 1065 l 399 1065 l 399 791 m 960 933 l 960 133 l 422 133 b 547 750 490 272 547 458 l 547 933 l 960 933 "},"ъ":{"x_min":231.9375,"x_max":1156.953125,"ha":1389,"o":"m 231 642 l 480 642 l 480 4 b 698 -7 537 -2 613 -7 b 1156 261 955 -7 1156 64 b 776 519 1156 456 955 519 b 637 511 727 519 677 517 l 637 767 l 231 767 l 231 642 m 637 401 b 738 407 670 404 702 407 b 1000 254 863 407 1000 372 b 745 104 1000 142 872 104 b 637 108 698 104 666 107 l 637 401 "},"C":{"x_min":53.078125,"x_max":786.71875,"ha":847,"o":"m 755 158 b 567 120 710 136 638 120 b 219 527 352 120 219 266 b 570 943 219 804 368 943 b 752 904 647 943 709 925 l 786 1036 b 564 1077 758 1051 684 1077 b 53 519 276 1077 53 880 b 537 -15 53 180 247 -15 b 782 29 650 -15 739 6 l 755 158 "},"ｚ":{"x_min":351.390625,"x_max":1036.109375,"ha":1389,"o":"m 351 0 l 1036 0 l 1036 129 l 561 129 l 561 133 b 683 266 602 173 644 222 l 1026 661 l 1026 766 l 380 766 l 380 636 l 826 636 l 826 633 b 702 501 784 587 743 547 l 351 98 l 351 0 "},"ﾄ":{"x_min":219.4375,"x_max":648.609375,"ha":694,"o":"m 219 -76 l 333 -76 l 333 569 b 602 397 420 519 531 450 l 648 522 b 333 704 575 570 430 652 l 333 1095 b 362 1126 351 1100 361 1112 l 219 1136 l 219 -76 "},"!":{"x_min":80.3125,"x_max":280.390625,"ha":369,"o":"m 266 1063 l 95 1063 l 119 316 l 242 316 l 266 1063 m 179 -15 b 280 91 240 -15 280 30 b 181 200 280 154 240 200 b 80 91 122 200 80 154 b 179 -15 80 33 117 -15 "},"\u0015":{"x_min":0,"x_max":0,"ha":311},"Й":{"x_min":295.390625,"x_max":1092.609375,"ha":1389,"o":"m 446 1288 b 692 1123 456 1181 537 1123 b 946 1288 855 1123 935 1181 l 841 1288 b 696 1195 832 1238 800 1195 b 552 1288 588 1195 559 1240 l 446 1288 m 1092 1073 l 919 1073 l 612 559 b 434 219 542 438 487 326 l 430 219 b 444 666 439 356 444 495 l 444 1073 l 295 1073 l 295 -5 l 456 -5 l 762 506 b 948 861 828 623 892 748 l 953 859 b 944 411 946 731 944 591 l 944 -5 l 1092 -5 l 1092 1073 "},"X":{"x_min":30,"x_max":803,"ha":850,"o":"m 507 544 l 793 1062 l 616 1062 l 502 830 b 420 652 470 766 447 718 l 417 652 b 334 829 390 712 366 765 l 219 1062 l 40 1062 l 318 540 l 30 0 l 205 0 l 313 226 b 405 427 352 306 379 363 l 409 427 b 510 226 438 363 466 306 l 624 0 l 803 0 l 507 544 "},"ﾝ":{"x_min":57,"x_max":661,"ha":694,"o":"m 57 918 b 312 734 140 873 244 800 l 372 847 b 111 1020 304 908 208 970 l 57 918 m 163 -21 b 179 6 172 -15 177 -4 b 661 850 455 167 584 444 b 577 914 638 864 601 891 b 79 99 499 523 370 241 l 163 -21 "},"Б":{"x_min":302.78125,"x_max":1120.828125,"ha":1389,"o":"m 302 4 b 556 -9 355 -2 445 -9 b 1120 341 888 -9 1120 104 b 634 671 1120 568 891 671 b 463 664 594 671 504 669 l 463 932 l 1020 932 l 1020 1065 l 302 1065 l 302 4 m 463 541 b 594 548 506 544 555 548 b 951 333 734 548 951 501 b 601 114 951 232 865 114 b 463 121 545 114 501 116 l 463 541 "},"￠":{"x_min":368.0625,"x_max":1000,"ha":1389,"o":"m 818 -23 l 818 134 b 1000 179 894 138 962 159 l 972 302 b 784 265 931 284 872 265 b 531 523 647 265 531 359 b 790 786 531 672 633 786 b 961 748 870 786 926 768 l 995 875 b 819 913 948 895 888 912 l 819 1068 l 702 1068 l 702 909 b 368 513 495 879 368 713 b 702 137 368 419 397 175 l 702 -23 l 818 -23 "},"г":{"x_min":397.21875,"x_max":1015.28125,"ha":1389,"o":"m 555 -6 l 555 638 l 1015 638 l 1015 765 l 397 765 l 397 -6 l 555 -6 "},"\u0002":{"x_min":0,"x_max":0,"ha":311},"х":{"x_min":303,"x_max":1086,"ha":1389,"o":"m 597 391 l 303 -6 l 482 -6 l 597 161 b 686 302 629 208 657 254 l 690 302 l 781 159 l 899 -6 l 1086 -6 l 795 398 l 1074 773 l 898 773 l 790 615 b 702 477 762 572 729 520 l 700 477 b 612 612 675 520 643 568 l 502 773 l 315 773 l 597 391 "},"}":{"x_min":40.828125,"x_max":396.078125,"ha":446,"o":"m 40 983 b 176 856 98 983 176 983 b 157 627 176 820 157 661 b 273 455 157 523 201 473 l 273 452 b 157 279 201 434 157 384 b 176 50 157 241 176 83 b 40 -77 176 -77 99 -77 l 40 -176 b 298 38 136 -176 298 -176 b 277 295 298 79 277 259 b 396 408 277 343 292 406 l 394 498 b 277 611 292 500 277 558 b 298 872 277 652 298 834 b 40 1081 298 1081 125 1081 l 40 983 "},"Ч":{"x_min":323.609375,"x_max":1065.28125,"ha":1389,"o":"m 906 438 l 906 0 l 1065 0 l 1065 1065 l 906 1065 l 906 559 b 704 508 855 530 776 508 b 480 716 552 508 480 584 l 480 1065 l 323 1065 l 323 695 b 654 379 323 490 441 379 b 902 438 744 379 829 400 l 906 438 "},"￨":{"x_min":316.671875,"x_max":377.78125,"ha":694,"o":"m 316 -166 l 377 -166 l 377 1222 l 316 1222 l 316 -166 "},"￥":{"x_min":250,"x_max":1138.890625,"ha":1389,"o":"m 763 0 l 763 261 l 1030 261 l 1030 347 l 763 347 l 763 459 l 1030 459 l 1030 545 l 811 545 l 1138 1026 l 944 1026 l 758 704 b 690 561 731 654 711 605 l 684 561 b 622 701 663 609 648 648 l 441 1026 l 250 1026 l 551 545 l 331 545 l 331 459 l 601 459 l 601 347 l 331 347 l 331 261 l 601 261 l 601 0 l 763 0 "},"\u0016":{"x_min":0,"x_max":0,"ha":311},"ｋ":{"x_min":398.609375,"x_max":1109.71875,"ha":1389,"o":"m 561 1125 l 398 1125 l 398 -6 l 561 -6 l 561 276 l 636 356 l 908 -6 l 1109 -6 l 748 454 l 1066 773 l 868 773 l 638 516 b 563 420 613 487 584 452 l 561 420 l 561 1125 "},"N":{"x_min":108.796875,"x_max":854.6875,"ha":983,"o":"m 854 1062 l 709 1062 l 709 670 b 725 220 709 501 713 365 l 721 219 b 552 570 676 331 617 454 l 280 1062 l 108 1062 l 108 0 l 254 0 l 254 397 b 243 855 254 583 251 720 l 248 856 b 421 497 296 737 359 612 l 695 0 l 854 0 l 854 1062 "},"\u0011":{"x_min":0,"x_max":0,"ha":311},"2":{"x_min":62.609375,"x_max":686,"ha":781,"o":"m 686 133 l 273 133 l 273 136 l 357 223 b 664 758 536 406 664 566 b 360 1062 664 916 571 1062 b 84 965 246 1062 147 1018 l 132 850 b 329 931 179 888 250 931 b 506 741 458 931 506 843 b 170 213 506 584 386 440 l 62 98 l 62 0 l 686 0 l 686 133 "},"\t":{"x_min":0,"x_max":0,"ha":311},"М":{"x_min":193.0625,"x_max":1195.828125,"ha":1389,"o":"m 1195 -8 l 1129 1070 l 948 1070 l 795 581 b 697 238 755 445 729 356 l 693 238 b 597 583 663 354 636 448 l 450 1070 l 266 1070 l 193 -8 l 338 -8 l 361 430 b 379 837 369 573 375 708 l 383 837 b 481 470 412 713 441 608 l 623 1 l 745 1 l 898 484 b 1005 837 940 613 970 716 l 1009 837 b 1022 438 1008 727 1009 655 l 1043 -8 l 1195 -8 "},"ｮ":{"x_min":131.9375,"x_max":537.5,"ha":694,"o":"m 150 695 l 445 695 l 445 438 l 161 438 l 161 333 l 445 333 l 445 66 l 131 66 l 131 -38 l 445 -38 l 445 -94 l 537 -94 l 537 800 l 150 800 l 150 695 "},"ь":{"x_min":383.328125,"x_max":1059.71875,"ha":1389,"o":"m 383 4 b 601 -7 441 -2 518 -7 b 1059 261 858 -7 1059 64 b 679 519 1059 456 859 519 b 540 511 631 519 580 517 l 540 774 l 383 774 l 383 4 m 540 401 b 641 407 575 404 605 407 b 902 254 766 407 902 372 b 647 104 902 142 776 104 b 540 108 601 104 570 107 l 540 401 "},"Ｗ":{"x_min":131,"x_max":1260,"ha":1389,"o":"m 514 -6 l 623 481 b 693 838 653 608 676 720 l 696 838 b 755 484 711 720 732 606 l 857 -6 l 1016 -6 l 1260 1072 l 1101 1072 l 1004 568 b 941 186 982 438 961 320 l 939 186 b 873 569 919 318 897 441 l 772 1072 l 630 1072 l 519 563 b 447 184 492 429 468 306 l 444 184 b 386 563 429 304 410 431 l 294 1072 l 131 1072 l 357 -6 l 514 -6 "},"в":{"x_min":368.0625,"x_max":1076.390625,"ha":1389,"o":"m 850 408 b 1033 583 947 427 1033 487 b 637 775 1033 754 788 775 b 368 756 538 775 434 766 l 368 0 b 608 -9 418 -4 513 -9 b 1076 218 783 -9 1076 16 b 850 405 1076 323 980 388 l 850 408 m 522 447 l 522 666 b 640 672 558 669 587 672 b 881 561 800 672 881 633 b 638 447 881 479 756 447 l 522 447 m 631 347 b 916 220 783 347 916 320 b 641 91 916 116 755 91 b 522 97 594 91 563 94 l 522 347 l 631 347 "},"€":{"x_min":16.328125,"x_max":735,"ha":781,"o":"m 654 394 l 654 481 l 257 481 b 259 572 257 522 257 536 l 654 572 l 654 659 l 274 659 b 536 929 304 859 430 929 b 692 887 597 929 657 906 l 725 1009 b 530 1058 683 1033 615 1058 b 114 659 300 1058 149 883 l 16 659 l 16 572 l 102 572 b 99 481 99 533 99 519 l 16 481 l 16 394 l 108 394 b 519 -15 141 120 314 -15 b 735 45 611 -15 690 15 l 705 165 b 537 118 672 147 608 118 b 269 394 490 118 303 126 l 654 394 "},"С":{"x_min":244.4375,"x_max":1115.28125,"ha":1389,"o":"m 1115 1031 b 838 1081 1068 1055 972 1081 b 244 522 479 1081 244 845 b 808 -16 244 197 461 -16 b 1109 36 951 -16 1055 8 l 1079 168 b 836 120 1015 136 929 120 b 415 527 570 120 415 288 b 841 947 415 786 591 947 b 1075 898 943 947 1019 923 l 1115 1031 "},"Ｋ":{"x_min":316.671875,"x_max":1147.21875,"ha":1389,"o":"m 316 -6 l 477 -6 l 477 386 l 591 508 l 955 -6 l 1147 -6 l 705 609 l 1112 1072 l 912 1072 l 569 662 b 480 547 541 627 512 588 l 477 547 l 477 1072 l 316 1072 l 316 -6 "},"ｃ":{"x_min":363.890625,"x_max":1016.671875,"ha":1389,"o":"m 986 150 b 802 112 943 131 887 112 b 527 381 647 112 527 213 b 806 654 526 534 630 654 b 981 616 888 654 943 637 l 1016 741 b 808 783 969 763 897 783 b 363 373 538 783 363 612 b 773 -16 363 143 525 -16 b 1011 27 884 -16 972 9 l 986 150 "},"s":{"x_min":51.53125,"x_max":536.078125,"ha":601,"o":"m 508 737 b 330 781 468 761 404 781 b 70 552 172 781 70 680 b 262 333 70 463 129 387 b 383 204 352 294 383 262 b 258 104 383 145 342 104 b 86 155 194 104 125 131 l 51 36 b 255 -15 101 5 176 -15 b 536 219 425 -15 536 72 b 346 451 536 330 470 400 b 221 570 255 491 221 518 b 330 663 221 622 259 663 b 473 620 391 663 443 640 l 508 737 "},"＃":{"x_min":260.953125,"x_max":1126.046875,"ha":1389,"o":"m 506 0 l 549 298 l 773 298 l 733 0 l 849 0 l 891 298 l 1082 298 l 1082 409 l 910 408 l 939 623 l 1126 623 l 1126 733 l 959 733 l 999 1026 l 883 1026 l 841 733 l 616 733 l 656 1026 l 540 1026 l 499 733 l 306 733 l 306 623 l 481 623 l 451 409 l 260 409 l 260 298 l 431 298 l 390 0 l 506 0 m 567 409 l 598 623 l 823 623 l 792 409 l 567 409 "},"?":{"x_min":74.859375,"x_max":548.53125,"ha":621,"o":"m 340 375 b 419 573 340 445 364 504 b 548 848 484 656 548 737 b 288 1081 548 968 469 1081 b 74 1022 204 1081 121 1055 l 111 905 b 254 950 148 931 204 950 b 386 825 341 950 386 900 b 288 619 386 756 349 698 b 198 379 225 537 198 456 b 202 312 198 368 201 326 l 343 312 l 340 375 m 269 -15 b 370 91 330 -15 370 30 b 269 201 370 155 329 201 b 168 91 210 201 168 155 b 269 -15 168 33 205 -15 "},"c":{"x_min":54.4375,"x_max":609.78125,"ha":660,"o":"m 583 144 b 442 113 548 129 504 113 b 215 381 311 113 215 213 b 443 654 215 531 296 654 b 578 623 507 654 551 637 l 609 747 b 442 781 577 763 514 781 b 54 375 201 781 54 606 b 412 -15 54 136 196 -15 b 605 23 499 -15 570 6 l 583 144 "},"Ｇ":{"x_min":221.078125,"x_max":1141.90625,"ha":1389,"o":"m 771 441 l 986 441 l 986 147 b 800 116 954 131 889 116 b 390 530 551 116 390 280 b 819 944 390 783 558 944 b 1069 895 934 944 1008 923 l 1108 1030 b 823 1081 1059 1052 955 1081 b 221 520 462 1081 221 863 b 793 -16 221 291 344 -16 b 1141 44 946 -16 1075 16 l 1141 570 l 771 570 l 771 441 "},"Ｚ":{"x_min":276.390625,"x_max":1112.5,"ha":1389,"o":"m 276 0 l 1112 0 l 1112 136 l 497 136 l 497 140 l 1101 962 l 1101 1065 l 330 1065 l 330 929 l 887 929 l 887 923 l 276 95 l 276 0 "},"ﾋ":{"x_min":125,"x_max":590.28125,"ha":694,"o":"m 125 237 b 316 -12 125 44 170 -12 l 477 -12 b 590 -4 511 -12 566 -9 l 588 118 b 473 106 551 111 509 106 l 318 106 b 231 226 250 106 231 125 l 231 516 b 556 705 327 561 468 640 b 570 702 561 704 565 702 b 587 706 576 702 583 704 l 522 840 b 231 636 450 777 333 691 l 231 1041 b 258 1068 247 1044 256 1054 l 125 1076 l 125 237 "},"ｳ":{"x_min":93.15625,"x_max":612.59375,"ha":694,"o":"m 290 862 l 93 862 l 93 438 l 188 438 l 188 743 l 500 743 b 180 11 487 420 394 156 b 277 -83 212 -11 258 -54 b 604 825 505 94 583 388 b 612 848 607 830 611 840 l 545 868 l 529 862 l 398 862 l 398 1084 b 426 1112 412 1087 425 1100 l 290 1123 l 290 862 "},"н":{"x_min":343.0625,"x_max":1045.828125,"ha":1389,"o":"m 500 -6 l 500 334 l 887 334 l 887 -6 l 1045 -6 l 1045 773 l 887 773 l 887 461 l 500 461 l 500 773 l 343 773 l 343 -6 l 500 -6 "},"(":{"x_min":92.5625,"x_max":401.53125,"ha":447,"o":"m 401 -188 b 223 448 302 -36 223 168 b 401 1093 223 734 299 943 l 283 1093 b 92 450 191 965 93 759 b 283 -188 92 143 191 -62 l 401 -188 "},"м":{"x_min":223.609375,"x_max":1165.28125,"ha":1389,"o":"m 391 344 b 401 631 395 443 398 538 l 406 631 b 495 348 427 559 470 422 l 627 0 l 743 0 l 883 352 b 977 631 925 470 958 565 l 981 631 b 994 345 984 522 990 425 l 1015 -6 l 1165 -6 l 1106 772 l 911 772 l 787 451 b 695 198 758 372 716 266 l 691 198 b 620 412 672 269 641 354 l 481 772 l 287 772 l 223 -6 l 369 -6 l 391 344 "},":":{"x_min":78.9375,"x_max":280.390625,"ha":340,"o":"m 179 531 b 280 640 240 531 280 579 b 179 750 280 705 239 750 b 78 640 121 750 78 702 b 179 531 78 581 115 531 m 179 -15 b 280 93 240 -15 280 30 b 179 202 280 156 239 202 b 78 93 121 202 78 155 b 179 -15 78 34 115 -15 "},"з":{"x_min":313.890625,"x_max":1061.109375,"ha":1389,"o":"m 313 44 b 627 -16 400 6 512 -16 b 1061 213 847 -16 1061 50 b 791 405 1061 323 943 393 l 791 408 b 1015 587 906 427 1015 493 b 675 783 1015 719 855 783 b 351 716 558 783 443 761 l 386 619 b 643 672 459 651 556 672 b 852 566 769 672 852 631 b 566 445 852 515 779 445 l 487 445 l 487 343 l 584 343 b 894 220 741 343 894 315 b 627 95 894 150 795 95 b 354 148 529 95 418 123 l 313 44 "},"Ｏ":{"x_min":188.890625,"x_max":1200,"ha":1389,"o":"m 687 -16 b 1200 544 975 -16 1200 184 b 701 1081 1200 850 1009 1081 b 188 522 401 1081 188 851 b 687 -16 188 216 381 -16 m 694 116 b 361 527 484 116 361 294 b 695 950 361 751 475 950 b 1027 537 916 950 1027 744 b 694 116 1027 300 905 116 "},"Ｕ":{"x_min":286.109375,"x_max":1102.78125,"ha":1389,"o":"m 286 1072 l 286 454 b 683 -16 286 120 448 -16 b 1102 456 930 -16 1102 129 l 1102 1072 l 940 1072 l 940 441 b 688 116 940 215 840 116 b 448 441 550 116 448 213 l 448 1072 l 286 1072 "},"\u001e":{"x_min":0,"x_max":0,"ha":311},"V":{"x_min":10,"x_max":838.921875,"ha":860,"o":"m 670 1062 l 523 562 b 422 170 483 431 446 297 l 418 170 b 320 563 392 298 358 429 l 182 1063 l 10 1063 l 325 0 l 501 0 l 838 1062 l 670 1062 "},"＇":{"x_min":629,"x_max":760.9375,"ha":1389,"o":"m 629 1177 l 660 820 l 727 820 l 760 1177 l 629 1177 "},"У":{"x_min":208,"x_max":1190,"ha":1389,"o":"m 817 619 b 742 438 787 545 762 488 l 737 438 b 646 615 710 494 680 552 l 392 1072 l 208 1072 l 648 336 b 653 315 652 329 653 323 b 635 275 653 304 648 290 b 394 116 577 188 501 116 b 327 120 364 116 344 118 l 316 -6 b 414 -16 339 -12 369 -16 b 695 113 528 -16 616 29 b 916 505 767 195 846 365 l 1190 1072 l 1020 1072 l 817 619 "},"@":{"x_min":65.328125,"x_max":1042.609375,"ha":1122,"o":"m 805 641 b 646 675 767 661 707 675 b 291 297 431 675 291 488 b 450 102 291 173 362 102 b 651 234 532 102 600 144 l 657 234 b 771 102 656 144 707 102 b 1042 494 921 102 1042 245 b 616 936 1042 747 875 936 b 65 322 285 936 65 650 b 515 -163 65 15 273 -163 b 781 -102 616 -163 696 -147 l 756 -31 b 534 -86 696 -66 617 -86 b 156 330 314 -86 156 68 b 602 859 156 651 363 859 b 952 480 830 859 952 702 b 794 183 952 291 869 181 b 743 265 760 184 743 209 b 752 348 743 287 747 315 l 805 641 m 654 391 b 491 195 638 298 566 195 b 404 305 434 195 404 238 b 624 583 404 451 503 583 b 687 573 653 583 673 579 l 654 391 "},"ﾇ":{"x_min":57,"x_max":620,"ha":694,"o":"m 126 919 l 474 919 b 390 583 457 808 423 677 b 218 734 333 640 275 691 l 151 650 b 343 466 211 601 286 527 b 57 26 269 283 169 126 b 140 -69 86 1 122 -41 b 419 376 247 31 343 190 b 549 204 464 323 514 256 l 620 322 b 468 505 581 376 526 443 b 581 981 518 652 557 813 b 600 998 588 984 597 993 l 522 1059 l 503 1044 l 126 1044 l 126 919 "},"i":{"x_min":88.46875,"x_max":272.21875,"ha":368,"o":"m 272 976 b 181 1070 272 1030 235 1070 b 88 976 126 1070 88 1030 b 179 883 88 925 125 883 b 272 976 236 883 272 925 m 258 766 l 100 766 l 100 0 l 258 0 l 258 766 "},"､":{"x_min":42,"x_max":452,"ha":694,"o":"m 42 191 b 338 -122 130 112 272 -37 l 452 -17 b 146 283 382 64 244 201 l 42 191 "},"ё":{"x_min":331.4375,"x_max":1059.21875,"ha":1389,"o":"m 988 145 b 756 105 930 123 864 105 b 487 340 610 105 489 187 l 1053 340 b 1059 412 1056 356 1059 381 b 720 783 1059 568 985 783 b 331 366 480 783 331 597 b 735 -16 331 137 485 -16 b 1014 34 868 -16 960 11 l 988 145 m 487 454 b 709 670 499 543 560 670 b 907 454 881 670 909 519 l 487 454 m 534 1066 b 449 980 487 1066 449 1029 b 532 894 449 936 482 894 b 616 980 588 894 616 937 b 534 1066 616 1023 588 1066 m 887 894 b 970 980 938 894 970 934 b 888 1066 970 1030 935 1066 b 803 980 841 1066 803 1029 b 887 894 803 934 837 894 "},"ﾘ":{"x_min":124.125,"x_max":597.734375,"ha":694,"o":"m 453 629 b 178 20 453 347 388 134 b 269 -77 211 -5 251 -47 b 563 625 504 61 563 323 l 563 1066 b 597 1095 585 1070 596 1080 l 453 1105 l 453 629 m 124 395 l 233 395 l 233 1008 b 268 1038 253 1013 267 1025 l 124 1051 l 124 395 "},"m":{"x_min":95.28125,"x_max":1129.71875,"ha":1251,"o":"m 1129 462 b 895 781 1129 704 1007 781 b 664 641 788 781 714 726 l 661 641 b 462 781 630 727 558 781 b 243 652 348 781 280 716 l 239 652 l 231 765 l 95 765 b 100 550 98 700 100 636 l 100 0 l 255 0 l 255 463 b 406 650 255 584 336 650 b 537 461 498 650 537 568 l 537 0 l 692 0 l 692 472 b 838 650 692 583 766 650 b 974 437 933 650 974 565 l 974 0 l 1129 0 l 1129 462 "},"｟":{"x_min":893.0625,"x_max":1344.453125,"ha":1389,"o":"m 1133 -122 l 1133 -112 b 963 527 1038 15 963 244 b 1133 1168 963 811 1038 1040 l 1133 1177 l 1054 1177 b 893 527 969 1048 893 811 b 1054 -122 893 250 966 11 l 1133 -122 m 1344 -122 l 1344 -112 b 1175 527 1250 15 1175 244 b 1344 1168 1175 811 1250 1040 l 1344 1177 l 1265 1177 b 1104 527 1180 1048 1104 811 b 1265 -122 1104 250 1177 11 l 1344 -122 "},"＜":{"x_min":143.5,"x_max":1231,"ha":1389,"o":"m 143 526 l 143 521 l 1178 -15 l 1231 86 l 386 521 l 386 526 l 1231 961 l 1178 1062 l 143 526 "},"\u001b":{"x_min":0,"x_max":0,"ha":311},"Е":{"x_min":330.5625,"x_max":1081.953125,"ha":1389,"o":"m 493 622 l 493 931 l 1054 931 l 1054 1065 l 330 1065 l 330 0 l 1081 0 l 1081 134 l 493 134 l 493 488 l 1025 488 l 1025 622 l 493 622 "},"Э":{"x_min":254.171875,"x_max":1133.328125,"ha":1389,"o":"m 254 34 b 558 -16 330 5 438 -16 b 1133 529 880 -16 1133 184 b 573 1081 1133 820 959 1081 b 272 1025 455 1081 344 1052 l 301 904 b 561 950 372 929 462 950 b 965 606 808 950 951 790 l 387 606 l 387 477 l 965 477 b 541 118 954 281 806 118 b 286 161 451 118 354 134 l 254 34 "},"５":{"x_min":330.5625,"x_max":1056.953125,"ha":1389,"o":"m 391 529 b 559 548 443 541 490 548 b 875 330 787 548 875 458 b 620 118 875 186 748 118 b 372 190 518 118 419 159 l 330 51 b 622 -19 386 16 495 -19 b 1056 339 894 -19 1056 143 b 644 678 1056 544 915 678 b 547 669 609 678 575 673 l 581 905 l 1022 905 l 1022 1047 l 459 1047 l 391 529 "},"ｇ":{"x_min":294.046875,"x_max":1059.3125,"ha":1389,"o":"m 1052 558 b 1059 773 1052 644 1055 715 l 914 773 l 906 650 l 903 650 b 656 783 867 719 788 783 b 294 375 462 783 294 627 b 635 4 294 172 428 4 b 887 130 756 4 842 61 l 889 130 l 889 61 b 637 -204 889 -119 781 -204 b 400 -140 538 -204 456 -175 l 363 -263 b 634 -330 431 -308 537 -330 b 1052 111 1012 -330 1052 -75 l 1052 558 m 889 331 b 685 126 889 195 778 126 b 457 381 532 126 457 251 b 687 654 457 547 555 654 b 889 454 791 654 889 579 l 889 331 "},"，":{"x_min":88.5,"x_max":351,"ha":1389,"o":"m 209 -119 b 351 212 256 -46 314 96 l 162 193 b 88 -132 148 93 117 -43 l 209 -119 "},"ю":{"x_min":225,"x_max":1258.328125,"ha":1389,"o":"m 225 -6 l 380 -6 l 380 330 l 512 330 b 879 -16 530 113 673 -16 b 1258 388 1079 -16 1258 119 b 887 783 1258 629 1111 783 b 513 450 691 783 543 658 l 380 450 l 380 772 l 225 772 l 225 -6 m 883 100 b 661 379 726 100 661 244 b 886 665 661 526 734 665 b 1101 386 1034 665 1101 523 b 883 100 1101 247 1034 100 "},"ｗ":{"x_min":108,"x_max":1280,"ha":1389,"o":"m 108 773 l 348 -6 l 496 -6 l 614 336 b 687 598 642 420 667 504 l 694 598 b 763 336 713 506 734 425 l 873 -6 l 1020 -6 l 1280 773 l 1117 773 l 1013 391 b 952 140 989 301 964 216 l 949 140 b 880 393 930 218 907 298 l 762 773 l 630 773 l 505 387 b 432 140 478 301 450 218 l 430 140 b 374 387 413 219 395 300 l 277 773 l 108 773 "},"K":{"x_min":108.890625,"x_max":824.828125,"ha":836,"o":"m 462 609 l 804 1062 l 612 1062 l 344 681 b 269 563 319 644 294 605 l 265 563 l 265 1062 l 108 1062 l 108 0 l 265 0 l 265 390 l 352 501 l 641 0 l 824 0 l 462 609 "},"7":{"x_min":78.984375,"x_max":698.28125,"ha":781,"o":"m 78 912 l 536 912 l 536 909 l 129 0 l 291 0 l 698 944 l 698 1045 l 78 1045 l 78 912 "},"п":{"x_min":338.890625,"x_max":1050,"ha":1389,"o":"m 495 -6 l 495 641 l 891 641 l 891 -6 l 1050 -6 l 1050 766 l 338 766 l 338 -6 l 495 -6 "},"Y":{"x_min":14.96875,"x_max":801.703125,"ha":821,"o":"m 624 1062 l 500 786 b 409 565 466 706 435 636 l 406 565 b 315 784 379 640 349 706 l 193 1062 l 14 1062 l 321 444 l 321 0 l 479 0 l 479 448 l 801 1062 l 624 1062 "},"E":{"x_min":108.890625,"x_max":676.46875,"ha":743,"o":"m 676 134 l 266 134 l 266 487 l 631 487 l 631 620 l 266 620 l 266 927 l 653 927 l 653 1062 l 108 1062 l 108 0 l 676 0 l 676 134 "},"ﾔ":{"x_min":44,"x_max":663,"ha":694,"o":"m 223 768 l 44 694 l 73 569 l 242 643 l 353 -76 l 453 -61 l 338 686 l 536 770 b 431 447 510 650 470 534 b 511 369 452 427 496 390 b 644 854 574 498 617 658 b 663 870 653 856 660 863 l 583 927 l 570 911 l 320 808 l 274 1100 b 299 1134 291 1106 299 1120 l 167 1127 l 223 768 "},"｛":{"x_min":970.828125,"x_max":1344.453125,"ha":1389,"o":"m 1344 -41 b 1212 147 1261 -34 1212 -11 b 1219 295 1212 170 1219 275 b 1084 525 1219 456 1165 511 l 1084 530 b 1219 759 1165 544 1219 598 b 1212 908 1219 783 1212 887 b 1344 1097 1212 1066 1261 1090 l 1344 1184 b 1123 916 1206 1177 1123 1102 b 1130 755 1123 890 1130 777 b 970 572 1130 600 1086 572 l 970 483 b 1130 301 1086 483 1130 455 b 1123 138 1130 275 1123 162 b 1344 -129 1123 -47 1206 -122 l 1344 -41 "},"ｨ":{"x_min":73.46875,"x_max":605.421875,"ha":694,"o":"m 334 -115 l 429 -113 l 429 522 b 447 537 437 525 444 530 b 424 551 438 543 430 548 b 580 822 480 633 535 729 b 605 841 587 825 601 833 l 502 896 b 73 284 422 697 247 439 b 131 196 97 259 119 222 b 334 434 198 261 281 355 l 334 -115 "},"\u0006":{"x_min":0,"x_max":0,"ha":311},"ﾅ":{"x_min":58.328125,"x_max":638.890625,"ha":694,"o":"m 58 800 l 58 675 l 313 675 b 76 2 297 362 243 156 b 177 -79 111 -19 158 -56 b 422 675 352 94 406 320 l 638 675 l 638 800 l 426 800 b 430 1105 429 890 430 998 b 456 1130 444 1108 456 1116 l 319 1136 b 316 800 319 1012 319 901 l 58 800 "},"ｑ":{"x_min":287.5,"x_max":1062.5,"ha":1389,"o":"m 894 -320 l 1055 -320 l 1055 556 b 1062 773 1055 626 1058 704 l 909 773 l 902 650 l 900 651 b 652 783 861 722 780 783 b 287 368 477 783 287 656 b 627 -16 287 144 434 -16 b 890 118 758 -16 844 41 l 894 118 l 894 -320 m 894 313 b 680 112 894 225 813 112 b 451 379 531 112 451 234 b 684 654 451 543 545 654 b 894 455 794 654 894 576 l 894 313 "},"|":{"x_min":126.578125,"x_max":245,"ha":379,"o":"m 126 -393 l 245 -393 l 245 1183 l 126 1183 l 126 -393 "},"ﾏ":{"x_min":43,"x_max":668,"ha":694,"o":"m 43 845 l 508 845 b 326 461 465 711 399 570 b 198 647 286 527 237 598 l 123 570 b 404 30 222 430 356 190 l 499 131 b 390 361 476 200 434 279 b 641 872 480 501 580 694 b 668 890 648 876 663 883 b 590 981 631 929 611 955 b 572 970 584 980 580 976 l 43 970 l 43 845 "},"й":{"x_min":343.0625,"x_max":1045.828125,"ha":1389,"o":"m 468 1072 b 688 877 473 959 536 877 b 919 1072 825 877 912 944 l 813 1072 b 690 958 805 1004 775 958 b 604 991 650 958 622 970 b 575 1072 586 1012 577 1041 l 468 1072 m 519 -6 b 761 376 587 86 684 250 b 897 609 811 458 854 540 l 906 609 b 897 290 900 491 897 422 l 897 -6 l 1045 -6 l 1045 773 l 862 773 l 618 395 b 487 159 566 313 531 247 l 480 159 b 490 477 487 251 490 359 l 490 773 l 343 773 l 343 -6 l 519 -6 "},"q":{"x_min":54.4375,"x_max":732.28125,"ha":843,"o":"m 583 765 l 578 663 l 574 663 b 370 781 536 737 466 781 b 54 372 217 781 54 651 b 348 -15 54 134 186 -15 b 564 104 451 -15 526 34 l 568 104 l 568 -309 l 726 -309 l 726 544 b 732 765 726 631 729 701 l 583 765 m 568 308 b 398 113 568 225 515 113 b 215 380 274 113 215 231 b 404 652 215 538 283 652 b 568 459 490 652 568 579 l 568 308 "},"b":{"x_min":95.28125,"x_max":778.5625,"ha":850,"o":"m 258 658 l 258 1113 l 100 1113 l 100 204 b 95 0 100 134 98 51 l 230 0 l 238 115 l 242 115 b 464 -15 292 25 367 -15 b 778 394 619 -15 778 115 b 488 781 778 627 660 781 b 261 658 383 781 306 736 l 258 658 m 258 452 b 431 652 258 554 332 652 b 617 387 556 652 617 531 b 430 113 617 223 551 113 b 258 302 326 113 258 205 l 258 452 "},"ｬ":{"x_min":56,"x_max":616,"ha":694,"o":"m 242 622 l 56 561 l 82 451 l 258 513 l 354 -113 l 442 -101 l 343 545 l 504 601 b 418 326 486 511 457 411 b 489 259 440 312 475 277 b 602 670 538 361 578 505 b 616 686 607 672 613 679 l 546 734 l 534 719 l 326 651 l 292 880 b 313 909 306 886 313 898 l 197 904 l 242 622 "},"＋":{"x_min":194.4375,"x_max":1194.453125,"ha":1389,"o":"m 752 581 l 752 1023 l 636 1023 l 636 581 l 194 581 l 194 466 l 636 466 l 636 23 l 752 23 l 752 466 l 1194 466 l 1194 581 l 752 581 "},"Ж":{"x_min":111.109375,"x_max":1276.390625,"ha":1389,"o":"m 619 595 l 590 595 l 305 1065 l 125 1065 l 468 576 b 205 291 311 554 252 437 b 111 0 176 195 151 94 l 268 0 b 345 241 300 69 320 166 b 577 476 398 411 447 472 l 619 476 l 619 0 l 768 0 l 768 476 l 809 476 b 1041 241 940 472 988 411 b 1119 0 1066 166 1087 69 l 1276 0 b 1181 291 1236 94 1211 195 b 919 576 1134 437 1076 554 l 1262 1065 l 1081 1065 l 797 595 l 768 595 l 768 1065 l 619 1065 l 619 595 "},"\u0019":{"x_min":0,"x_max":0,"ha":311},"８":{"x_min":300,"x_max":1090.28125,"ha":1389,"o":"m 511 540 b 300 270 372 487 300 395 b 690 -19 300 115 443 -19 b 1090 295 918 -19 1090 104 b 872 556 1090 425 1002 515 l 872 559 b 1045 800 1000 613 1045 711 b 702 1066 1045 929 941 1066 b 338 775 493 1066 338 945 b 511 544 338 683 388 595 l 511 540 m 697 943 b 880 783 830 943 880 855 b 712 611 880 693 804 631 b 506 787 581 638 506 694 b 697 943 506 865 566 943 m 693 105 b 477 290 554 105 477 200 b 675 481 477 383 548 458 b 906 275 820 452 906 393 b 693 105 906 184 826 105 "},"？":{"x_min":374.9375,"x_max":1012.4375,"ha":1389,"o":"m 733 313 b 727 375 727 358 727 362 b 836 572 727 445 761 505 b 1012 844 933 654 1012 731 b 666 1079 1012 962 915 1079 b 374 1012 555 1079 449 1050 l 422 898 b 644 951 476 929 562 951 b 847 825 783 951 847 897 b 706 623 847 754 794 702 b 581 388 617 540 581 466 b 588 313 581 376 587 323 l 733 313 m 662 -13 b 767 94 731 -13 767 37 b 665 204 767 158 726 204 b 561 91 611 204 561 166 b 662 -13 561 31 604 -13 "},"Н":{"x_min":288.890625,"x_max":1100,"ha":1389,"o":"m 288 -6 l 450 -6 l 450 484 l 938 484 l 938 -6 l 1100 -6 l 1100 1072 l 938 1072 l 938 626 l 450 626 l 450 1072 l 288 1072 l 288 -6 "},"ф":{"x_min":243.0625,"x_max":1144.453125,"ha":1389,"o":"m 620 777 b 243 376 404 756 243 619 b 620 -16 243 143 395 0 l 620 -311 l 768 -311 l 768 -16 b 1144 381 987 1 1144 138 b 768 779 1144 615 993 758 l 768 1106 l 620 1106 l 620 777 m 623 86 b 393 381 470 112 393 227 b 623 676 393 527 470 650 l 623 86 m 766 676 b 995 383 918 647 995 531 b 766 86 995 230 918 112 l 766 676 "},"л":{"x_min":268.0625,"x_max":1063.890625,"ha":1389,"o":"m 287 -18 b 426 26 340 -18 388 -1 b 559 450 536 91 559 233 l 559 641 l 905 641 l 905 -6 l 1063 -6 l 1063 766 l 409 766 l 409 448 b 268 109 409 266 400 133 l 287 -18 "},"／":{"x_min":43.984375,"x_max":1344,"ha":1389,"o":"m 87 -122 l 1344 1134 l 1300 1178 l 43 -78 l 87 -122 "},"４":{"x_min":272.21875,"x_max":1119.453125,"ha":1389,"o":"m 963 -8 l 963 237 l 1119 237 l 1119 368 l 963 368 l 963 1055 l 738 1055 l 272 350 l 272 237 l 791 237 l 791 -8 l 963 -8 m 452 368 l 454 372 l 683 729 b 790 922 720 791 756 855 l 797 922 b 791 726 794 854 791 791 l 791 368 l 452 368 "},"；":{"x_min":525,"x_max":809.71875,"ha":1389,"o":"m 694 975 b 581 861 631 975 581 923 b 694 748 581 800 631 748 b 806 861 756 748 806 800 b 694 975 806 920 759 975 m 662 -6 b 809 348 708 66 775 231 l 605 327 b 525 -23 591 227 554 65 l 662 -6 "},"Ｖ":{"x_min":221,"x_max":1168,"ha":1389,"o":"m 775 -6 l 1168 1072 l 991 1072 l 809 526 b 686 136 761 384 720 258 l 683 136 b 568 527 650 258 613 380 l 400 1072 l 221 1072 l 583 -6 l 775 -6 "},"L":{"x_min":108.890625,"x_max":668.3125,"ha":714,"o":"m 668 136 l 266 136 l 266 1062 l 108 1062 l 108 0 l 668 0 l 668 136 "},"Щ":{"x_min":116.671875,"x_max":1325,"ha":1389,"o":"m 1184 0 l 1193 -250 l 1315 -250 l 1325 127 l 1233 130 l 1233 1065 l 1079 1065 l 1079 133 l 752 133 l 752 1065 l 598 1065 l 598 133 l 272 133 l 272 1065 l 116 1065 l 116 0 l 1184 0 "},"\u0014":{"x_min":0,"x_max":0,"ha":311}," ":{"x_min":0,"x_max":0,"ha":311},"￡":{"x_min":305.90625,"x_max":1086.453125,"ha":1389,"o":"m 1086 0 l 1086 136 l 543 136 l 543 138 b 662 388 644 220 662 297 b 660 444 662 406 661 426 l 917 444 l 917 565 l 646 565 b 630 698 637 605 630 650 b 830 908 630 816 689 908 b 1003 872 911 908 968 891 l 1037 1004 b 826 1047 998 1025 928 1047 b 467 715 611 1047 467 915 b 479 565 467 663 471 615 l 315 565 l 315 444 l 500 444 b 505 358 505 405 505 381 b 305 94 505 247 432 162 l 305 0 l 1086 0 "},"+":{"x_min":61.25,"x_max":858.859375,"ha":940,"o":"m 405 475 l 61 475 l 61 368 l 405 368 l 405 0 l 515 0 l 515 368 l 858 368 l 858 475 l 515 475 l 515 840 l 405 840 l 405 475 "},"ｂ":{"x_min":329.171875,"x_max":1102.796875,"ha":1389,"o":"m 334 209 b 329 -6 334 134 331 50 l 468 -6 l 475 125 l 479 125 b 743 -16 541 20 634 -16 b 1102 397 926 -16 1102 122 b 768 783 1104 618 970 783 b 500 644 641 783 550 727 l 497 644 l 497 1125 l 334 1125 l 334 209 m 497 441 b 712 654 497 544 580 654 b 940 388 856 654 940 536 b 708 112 940 218 845 112 b 497 312 606 112 497 190 l 497 441 "},"'":{"x_min":70.78125,"x_max":219.140625,"ha":296,"o":"m 98 700 l 191 700 l 219 1088 l 70 1088 l 98 700 "},"ｉ":{"x_min":593.0625,"x_max":795.828125,"ha":1389,"o":"m 694 900 b 795 1002 755 900 795 947 b 694 1105 795 1059 755 1105 b 593 1002 633 1105 593 1058 b 694 900 593 954 625 900 m 775 -6 l 775 773 l 612 773 l 612 -6 l 775 -6 "},"Р":{"x_min":318.0625,"x_max":1109.71875,"ha":1389,"o":"m 479 -7 l 479 403 b 626 394 522 396 572 394 b 1109 749 870 394 1109 477 b 1001 978 1109 846 1068 924 b 638 1074 918 1046 800 1074 b 318 1052 501 1074 395 1063 l 318 -7 l 479 -7 m 479 935 b 651 948 508 942 568 948 b 947 741 808 948 947 892 b 636 521 947 607 834 521 b 479 535 575 521 522 524 l 479 935 "},"Ｃ":{"x_min":244.4375,"x_max":1115.28125,"ha":1389,"o":"m 1079 168 b 836 120 1015 137 929 120 b 415 527 570 120 415 288 b 843 945 415 786 593 945 b 1075 897 943 945 1019 923 l 1115 1031 b 838 1081 1068 1055 972 1081 b 244 522 480 1081 244 845 b 808 -16 244 197 461 -16 b 1109 36 951 -16 1055 8 l 1079 168 "},"щ":{"x_min":168.0625,"x_max":1269.453125,"ha":1389,"o":"m 1133 0 l 1140 -234 l 1262 -234 l 1269 112 l 1193 115 l 1193 773 l 1037 773 l 1037 123 l 758 123 l 758 773 l 602 773 l 602 123 l 323 123 l 323 773 l 168 773 l 168 0 l 1133 0 "},"\u0003":{"x_min":0,"x_max":0,"ha":311},"Ｌ":{"x_min":326.390625,"x_max":1088.890625,"ha":1389,"o":"m 326 0 l 1088 0 l 1088 136 l 488 136 l 488 1072 l 326 1072 l 326 0 "},"｜":{"x_min":663.890625,"x_max":725,"ha":1389,"o":"m 663 -166 l 725 -166 l 725 1222 l 663 1222 l 663 -166 "},"⃞":{"x_min":69.4375,"x_max":1319.453125,"ha":1389,"o":"m 69 -97 l 1319 -97 l 1319 1152 l 69 1152 l 69 -97 m 1272 1105 l 1272 -50 l 116 -50 l 116 1105 l 1272 1105 "},"Т":{"x_min":236.109375,"x_max":1152.78125,"ha":1389,"o":"m 775 -6 l 775 926 l 1152 926 l 1152 1065 l 236 1065 l 236 926 l 612 926 l 612 -6 l 775 -6 "},"３":{"x_min":319.4375,"x_max":1056.953125,"ha":1389,"o":"m 404 838 b 652 927 450 879 552 927 b 840 779 777 927 840 859 b 604 606 840 663 716 606 l 498 606 l 498 479 l 604 479 b 873 298 737 479 873 434 b 638 119 873 212 802 119 b 369 206 522 119 419 168 l 319 77 b 644 -19 391 20 505 -19 b 1056 290 920 -19 1056 130 b 804 550 1056 444 941 533 l 804 552 b 1018 809 950 594 1018 690 b 684 1066 1018 947 904 1066 b 354 963 548 1066 419 1018 l 404 838 "},"W":{"x_min":25,"x_max":1237.75,"ha":1281,"o":"m 1077 1062 l 965 561 b 896 187 938 431 913 312 l 892 187 b 826 556 877 309 852 431 l 717 1062 l 559 1062 l 441 559 b 365 186 411 425 381 300 l 362 186 b 295 556 344 295 321 426 l 192 1062 l 25 1062 l 268 0 l 434 0 l 558 512 b 629 856 589 638 613 743 l 633 856 b 693 512 645 743 666 636 l 806 0 l 970 0 l 1237 1062 l 1077 1062 "},"а":{"x_min":329.171875,"x_max":1025,"ha":1389,"o":"m 420 600 b 655 668 487 643 570 668 b 847 493 815 668 847 575 b 329 204 506 497 329 390 b 586 -16 329 101 408 -16 b 859 102 713 -16 809 40 l 862 102 l 877 -6 l 1025 -6 b 1009 187 1013 43 1009 119 l 1009 440 b 681 783 1009 590 966 783 b 384 708 570 783 462 754 l 420 600 m 852 259 b 631 100 852 176 745 100 b 487 226 554 100 487 143 b 852 387 487 344 656 390 l 852 259 "},"Ｈ":{"x_min":287.5,"x_max":1101.390625,"ha":1389,"o":"m 287 1072 l 287 -6 l 451 -6 l 451 484 l 937 484 l 937 -6 l 1101 -6 l 1101 1072 l 937 1072 l 937 627 l 451 627 l 451 1072 l 287 1072 "},"ｘ":{"x_min":303,"x_max":1086,"ha":1389,"o":"m 315 773 l 595 391 l 303 -6 l 482 -6 l 597 161 b 686 302 629 206 657 254 l 690 302 b 781 159 719 256 750 206 l 898 -6 l 1086 -6 l 795 398 l 1076 773 l 898 773 l 790 615 b 702 479 762 573 729 520 l 700 479 b 612 612 675 520 643 568 l 502 773 l 315 773 "},"ｊ":{"x_min":398.609375,"x_max":833.328125,"ha":1389,"o":"m 729 905 b 833 1009 793 905 833 955 b 730 1113 833 1066 791 1113 b 625 1009 669 1113 625 1066 b 729 905 625 962 656 905 m 413 -343 b 811 94 786 -348 811 -88 l 811 773 l 647 773 l 647 140 b 398 -215 647 -68 638 -215 l 413 -343 "},"v":{"x_min":18,"x_max":701.28125,"ha":732,"o":"m 536 765 l 415 356 b 365 163 396 290 378 227 l 361 163 b 310 358 347 227 331 291 l 188 765 l 18 765 l 280 0 l 431 0 l 701 765 l 536 765 "},">":{"x_min":98,"x_max":823.46875,"ha":940,"o":"m 98 840 l 98 716 l 700 420 l 700 418 l 98 123 l 98 0 l 823 366 l 823 472 l 98 840 "},"\n":{"x_min":0,"x_max":0,"ha":311},"ﾞ":{"x_min":33,"x_max":307,"ha":694,"o":"m 159 1172 b 259 998 197 1124 240 1054 l 307 1023 b 205 1195 283 1084 244 1147 l 159 1172 m 33 1113 b 131 940 70 1067 112 995 l 181 963 b 78 1137 158 1022 119 1088 l 33 1113 "},"\u0010":{"x_min":0,"x_max":0,"ha":311},"ｲ":{"x_min":35.53125,"x_max":656.359375,"ha":694,"o":"m 339 -71 l 448 -71 l 448 681 b 468 699 457 683 466 690 b 442 714 459 706 449 711 b 624 1034 500 800 574 927 b 656 1052 636 1035 650 1040 l 536 1116 b 35 404 450 899 250 594 b 100 297 63 367 86 328 b 339 572 175 371 278 483 l 339 -71 "},"Х":{"x_min":231,"x_max":1157,"ha":1389,"o":"m 791 543 l 1147 1072 l 958 1072 l 800 809 b 697 625 757 736 728 686 l 694 625 b 589 811 664 679 632 736 l 435 1072 l 244 1072 l 585 537 l 231 -6 l 418 -6 l 555 229 b 679 448 605 313 643 379 l 682 448 b 815 229 716 391 753 327 l 965 -6 l 1157 -6 l 791 543 "},"r":{"x_min":95.28125,"x_max":477.75,"ha":510,"o":"m 477 777 b 438 781 464 780 453 781 b 243 625 356 781 277 722 l 238 625 l 232 765 l 95 765 b 100 531 99 694 100 620 l 100 0 l 258 0 l 258 405 b 431 627 258 538 325 627 b 477 623 449 627 464 626 l 477 777 "},"ж":{"x_min":163.890625,"x_max":1223.609375,"ha":1389,"o":"m 587 438 l 345 773 l 169 773 l 466 420 b 251 215 356 402 295 329 b 163 -6 227 145 198 59 l 319 -6 b 391 176 347 44 366 105 b 618 334 450 331 526 334 l 618 -6 l 770 -6 l 770 334 b 995 177 859 334 937 331 b 1068 -6 1019 108 1038 44 l 1223 -6 b 1137 215 1190 58 1161 145 b 922 420 1093 331 1031 404 l 1218 773 l 1041 773 l 801 438 l 770 438 l 770 773 l 618 773 l 618 438 l 587 438 "},"x":{"x_min":12,"x_max":680,"ha":710,"o":"m 505 765 l 420 612 b 354 487 398 572 376 530 l 352 487 b 285 611 330 529 309 568 l 195 765 l 21 765 l 254 388 l 12 0 l 183 0 l 271 162 b 339 291 296 206 318 247 l 342 291 b 409 163 364 245 386 205 l 501 0 l 680 0 l 440 395 l 675 765 l 505 765 "},"＆":{"x_min":236.453125,"x_max":1175.34375,"ha":1389,"o":"m 1175 0 b 993 188 1114 60 1053 125 b 1151 578 1071 270 1122 402 l 1007 578 b 908 285 985 439 953 346 b 660 559 851 341 753 452 l 660 564 b 896 849 835 650 896 739 b 644 1081 896 985 790 1081 b 358 813 458 1081 358 948 b 446 591 358 742 389 661 l 446 586 b 236 281 328 525 236 432 b 573 -17 236 116 365 -17 b 887 95 694 -17 793 16 b 983 0 923 55 953 27 l 1175 0 m 637 973 b 755 841 721 973 755 902 b 586 645 755 757 690 703 b 507 827 542 700 507 753 b 637 973 507 893 543 973 m 604 105 b 390 306 476 105 390 191 b 521 502 390 410 467 470 b 811 186 639 367 760 236 b 604 105 765 139 692 105 "},"ｆ":{"x_min":437.5,"x_max":1005.5625,"ha":1389,"o":"m 716 -6 l 716 645 l 926 645 l 926 766 l 716 766 b 884 1022 716 856 716 1022 b 984 1002 929 1022 961 1013 l 1005 1127 b 865 1152 976 1140 925 1152 b 655 1079 781 1152 709 1126 b 554 766 554 990 554 845 l 437 766 l 437 645 l 554 645 l 554 -6 l 716 -6 "},"ｍ":{"x_min":134.71875,"x_max":1247.21875,"ha":1389,"o":"m 141 -6 l 301 -6 l 301 462 b 470 650 301 575 388 650 b 613 455 565 650 613 566 l 613 -6 l 773 -6 l 773 473 b 936 650 773 573 848 650 b 1087 426 1037 650 1087 569 l 1087 -6 l 1247 -6 l 1247 447 b 995 783 1247 705 1106 783 b 747 634 868 783 788 708 l 743 634 b 529 783 712 719 636 783 b 288 644 405 783 333 716 l 283 644 l 275 773 l 134 773 b 141 551 138 705 141 627 l 141 -6 "},"＂":{"x_min":497,"x_max":891.15625,"ha":1389,"o":"m 497 1177 l 528 820 l 592 820 l 624 1177 l 497 1177 m 761 1177 l 795 820 l 857 820 l 891 1177 l 761 1177 "},"с":{"x_min":363.890625,"x_max":1016.671875,"ha":1389,"o":"m 1016 741 b 808 783 969 763 897 783 b 363 373 538 783 363 612 b 773 -16 363 143 525 -16 b 1011 27 884 -16 972 9 l 986 148 b 802 112 943 131 886 112 b 526 381 647 112 526 213 b 806 655 526 534 630 655 b 981 616 888 655 943 637 l 1016 741 "},"h":{"x_min":100.71875,"x_max":720.03125,"ha":835,"o":"m 720 462 b 476 781 720 704 589 781 b 261 661 394 781 310 740 l 258 661 l 258 1113 l 100 1113 l 100 0 l 258 0 l 258 468 b 419 648 258 583 341 648 b 562 447 525 648 562 556 l 562 0 l 720 0 l 720 462 "},"\u001f":{"x_min":0,"x_max":0,"ha":311},".":{"x_min":78.9375,"x_max":281.75,"ha":340,"o":"m 179 -15 b 281 94 242 -15 281 30 b 181 205 281 159 240 205 b 78 94 122 205 78 158 b 179 -15 78 33 117 -15 "},"f":{"x_min":20.421875,"x_max":502.25,"ha":461,"o":"m 20 765 l 20 644 l 121 644 l 121 0 l 279 0 l 279 644 l 442 644 l 442 765 l 277 765 l 277 806 b 405 1000 277 909 307 1000 b 485 984 442 1000 465 993 l 502 1108 b 387 1129 475 1119 436 1129 b 205 1058 326 1129 257 1109 b 121 765 121 972 121 848 l 20 765 "},"ｵ":{"x_min":40.28125,"x_max":638.890625,"ha":694,"o":"m 480 804 l 479 1083 b 505 1109 493 1087 505 1098 l 372 1116 l 373 804 l 91 804 l 91 681 l 341 681 b 40 208 284 515 162 327 b 104 98 65 177 90 130 b 383 538 222 222 320 373 l 383 80 b 288 37 383 37 376 37 b 227 40 268 37 245 38 b 262 -79 243 1 255 -44 b 488 80 415 -79 488 -62 l 483 681 l 638 681 l 638 804 l 480 804 "},"A":{"x_min":34,"x_max":864.1875,"ha":918,"o":"m 545 1062 l 352 1062 l 34 0 l 195 0 l 285 312 l 604 312 l 698 0 l 864 0 l 545 1062 m 310 436 l 393 715 b 442 923 410 780 427 858 l 444 923 b 496 713 459 858 477 783 l 578 436 l 310 436 "},"O":{"x_min":53.078125,"x_max":936.453125,"ha":1010,"o":"m 502 1079 b 53 525 235 1079 53 859 b 488 -15 53 204 223 -15 b 936 541 741 -15 936 172 b 502 1079 936 847 778 1079 m 496 947 b 770 536 683 947 770 738 b 494 116 770 309 676 116 b 219 529 314 116 219 313 b 496 947 219 737 304 947 "},"７":{"x_min":328.03125,"x_max":1062.75,"ha":1389,"o":"m 328 1047 l 328 905 l 872 905 l 872 901 l 401 -8 l 593 -8 l 1062 931 l 1062 1047 l 328 1047 "},"3":{"x_min":57.171875,"x_max":668.3125,"ha":781,"o":"m 453 566 b 635 811 570 611 635 704 b 349 1062 635 944 541 1062 b 92 986 243 1062 144 1025 l 132 870 b 314 933 171 898 242 933 b 475 786 423 933 475 868 b 270 616 475 670 359 616 l 204 616 l 204 501 l 273 501 b 506 304 394 501 506 438 b 300 113 506 211 446 113 b 98 173 216 113 134 148 l 57 50 b 307 -15 106 16 201 -15 b 668 298 540 -15 668 127 b 453 563 668 445 568 541 l 453 566 "},"9":{"x_min":55.828125,"x_max":714.609375,"ha":781,"o":"m 555 473 b 238 120 534 343 460 151 b 137 115 196 115 167 112 l 137 -13 b 249 -6 166 -15 206 -13 b 714 623 552 26 714 289 b 387 1062 714 880 597 1062 b 55 694 185 1062 55 888 b 338 376 55 507 172 376 b 551 473 430 376 502 414 l 555 473 m 379 944 b 554 650 495 944 554 822 b 543 588 554 620 549 602 b 379 490 513 534 454 490 b 213 704 276 490 213 580 b 379 944 213 844 281 944 "},"］":{"x_min":44.4375,"x_max":391.671875,"ha":1389,"o":"m 391 1177 l 44 1177 l 44 1090 l 302 1090 l 302 -34 l 44 -34 l 44 -122 l 391 -122 l 391 1177 "},"ﾀ":{"x_min":50,"x_max":628,"ha":694,"o":"m 501 816 b 436 518 486 701 462 602 b 297 615 402 543 350 581 l 245 509 b 391 401 297 476 347 438 b 122 5 332 250 223 88 b 216 -79 154 -19 193 -50 b 476 319 323 23 415 169 b 550 238 501 295 532 262 l 616 359 b 521 445 596 381 550 423 b 611 873 559 569 590 711 b 628 891 618 879 626 883 l 555 944 l 537 937 l 330 937 b 364 1097 343 988 357 1048 b 393 1116 379 1100 390 1106 l 265 1140 b 50 526 234 900 159 659 b 133 443 75 509 118 468 b 300 816 204 544 259 675 l 501 816 "},"l":{"x_min":100.71875,"x_max":258.609375,"ha":367,"o":"m 258 1113 l 100 1113 l 100 0 l 258 0 l 258 1113 "},"4":{"x_min":29.9375,"x_max":735,"ha":781,"o":"m 607 276 l 735 276 l 735 398 l 607 398 l 607 1045 l 431 1045 l 29 380 l 29 276 l 458 276 l 458 0 l 607 0 l 607 276 m 178 401 l 374 720 b 460 894 402 776 428 827 l 465 894 b 458 712 461 834 458 772 l 458 398 l 178 398 l 178 401 "},"Ъ":{"x_min":152.78125,"x_max":1236.109375,"ha":1389,"o":"m 152 924 l 470 924 l 470 4 b 693 -9 516 -2 587 -9 b 1236 343 1066 -9 1236 137 b 770 674 1236 566 1018 674 b 629 666 723 674 663 670 l 629 1065 l 152 1065 l 152 924 m 629 544 b 748 551 663 547 705 551 b 1069 336 915 551 1069 483 b 741 113 1069 193 926 113 b 629 120 694 113 663 116 l 629 544 "},"\u001a":{"x_min":0,"x_max":0,"ha":311},"\r":{"x_min":0,"x_max":0,"ha":311},"Ｒ":{"x_min":311.109375,"x_max":1140.28125,"ha":1389,"o":"m 311 -6 l 472 -6 l 472 448 l 654 448 b 883 255 790 440 847 393 b 968 -6 925 90 945 22 l 1140 -6 b 1036 306 1111 43 1075 163 b 859 497 1009 397 954 473 l 859 502 b 1094 773 997 529 1094 629 b 1002 979 1094 863 1058 934 b 643 1073 920 1045 813 1073 b 311 1051 523 1073 400 1063 l 311 -6 m 472 937 b 654 950 506 944 561 950 b 930 758 829 950 930 887 b 668 570 930 647 837 570 l 472 570 l 472 937 "}}}
